<?xml version="1.0" encoding="UTF-8"?>
<!DOCTYPE svg PUBLIC "-//W3C//DTD SVG 1.1//EN" "http://www.w3.org/Graphics/SVG/1.1/DTD/svg11.dtd">
<!-- Creator: CorelDRAW X8 -->
<svg xmlns="http://www.w3.org/2000/svg" xml:space="preserve" width="30mm" height="30mm" version="1.1" style="shape-rendering:geometricPrecision; text-rendering:geometricPrecision; image-rendering:optimizeQuality; fill-rule:evenodd; clip-rule:evenodd"
viewBox="0 0 3000 3000"
 xmlns:xlink="http://www.w3.org/1999/xlink">
 <defs>
  <style type="text/css">
   <![CDATA[
    .fil0 {fill:#163E6C}
   ]]>
  </style>
 </defs>
 <g id="Слой_x0020_1">
  <metadata id="CorelCorpID_0Corel-Layer"/>
  <path class="fil0" d="M1914 1564c-123,488 -630,492 -852,265 -257,-261 -171,-753 268,-848l0 -284c-306,10 -558,265 -643,490 -127,337 -3,674 178,851 515,504 1320,82 1333,-475l-284 1zm-530 164l70 -5c22,70 -5,96 -70,76 -10,-30 -10,-42 0,-71zm-108 -222c-34,-198 249,-232 285,-64 43,201 -254,243 -285,64zm457 10c-57,5 -73,-10 -68,-67 17,-11 45,-35 74,-6 34,35 -6,68 -6,73zm-618 -86c41,3 31,1 57,19 12,126 -146,69 -57,-19zm293 -287c59,8 64,34 43,80l-63 5c-21,-48 -20,-56 20,-85zm419 407c49,-239 -132,-449 -329,-482 -252,-43 -450,128 -487,331 -96,531 702,699 816,151zm-36 -895c-130,-39 -209,-81 -374,-75l0 391c291,28 495,201 504,505l395 -1c-1,-156 -31,-255 -85,-384l-211 128 -38 -69c62,-49 144,-87 204,-138 -51,-109 -203,-249 -309,-307 -42,35 -85,156 -111,211l-78 -39 103 -222z"/>
 </g>
</svg>
