<?xml version="1.0" encoding="UTF-8"?>
<!DOCTYPE svg PUBLIC "-//W3C//DTD SVG 1.1//EN" "http://www.w3.org/Graphics/SVG/1.1/DTD/svg11.dtd">
<!-- Creator: CorelDRAW X8 -->
<svg xmlns="http://www.w3.org/2000/svg" xml:space="preserve" width="30mm" height="30mm" version="1.1" style="shape-rendering:geometricPrecision; text-rendering:geometricPrecision; image-rendering:optimizeQuality; fill-rule:evenodd; clip-rule:evenodd"
viewBox="0 0 3000 3000"
 xmlns:xlink="http://www.w3.org/1999/xlink">
 <defs>
  <style type="text/css">
   <![CDATA[
    .fil0 {fill:#153E6C}
   ]]>
  </style>
 </defs>
 <g id="Слой_x0020_1">
  <metadata id="CorelCorpID_0Corel-Layer"/>
  <path class="fil0" d="M1916 1215c-71,-67 7,-148 75,-74 8,61 -15,83 -75,74zm-19 -169c-148,53 -83,297 90,238 139,-48 79,-299 -90,-238zm-1179 1347c-31,-160 197,-60 67,30 -46,-2 -41,-3 -67,-30zm2 -146c-57,25 -110,81 -74,172 23,57 93,102 177,69 149,-59 62,-315 -103,-241zm655 155c-132,-129 110,-221 100,-40 -28,34 -40,47 -100,40zm-11 -226c-210,57 -130,374 89,317 77,-21 139,-112 110,-209 -22,-73 -102,-134 -199,-108zm761 -209l-36 -164 -119 391 309 -49c14,-3 32,-5 46,-8l50 -22c-43,-8 -112,-24 -141,-46 43,-75 97,-114 154,-251 40,-95 75,-216 71,-331 -40,71 -34,134 -130,272 -43,63 -143,185 -204,208zm-509 -1082l-105 -24 -1 -354c345,-8 281,-11 326,109 35,95 103,226 82,340 -50,3 -64,0 -107,-13 -137,-38 -95,4 -165,-226l-49 -5c-11,48 4,140 19,173zm-174 14l-34 -56c-199,-2 -169,-12 -167,371l82 -1c2,-79 30,-145 121,-149 102,-4 113,65 133,145l218 5c-24,-251 261,-262 296,-61l37 20c5,48 6,41 30,67l273 -15c72,-3 60,10 66,-41l-304 0 -4 -467 -57 -9 -1 -230 -122 -2 -4 453c-9,31 -1,8 -17,27 0,-145 -11,-147 -57,-268 -72,-186 -56,-238 -152,-246l-313 5c-40,49 -17,332 -24,452zm-594 584l365 1c35,64 79,196 106,273 45,127 73,147 62,306 -72,11 -233,-29 -285,-60 -67,-68 1,-267 -139,-252 -8,56 -2,174 41,230l-153 -43 3 -455zm-85 511l-45 -72 -157 -3c-28,24 -44,36 -61,72l0 406 106 0c-3,-266 332,-253 324,-3l286 3c-32,-324 351,-347 386,-62l48 6c7,129 6,94 473,66l4 -45 -399 -2 -1 -612 -68 -1 -6 -304 -159 -3 -1 484c0,39 15,124 -16,142 -25,-35 -6,-104 -14,-152l-134 -367c-52,-143 -26,-145 -187,-145 -365,1 -379,-39 -378,119l-1 473zm646 -834c33,-28 59,-13 80,15 -2,61 -30,67 -80,44l0 -59zm10 -68c-126,42 -77,239 66,193 105,-33 70,-238 -66,-193zm-469 -151l23 -7 103 -369 -411 69 151 51c-10,21 -25,35 -41,56 -108,145 -204,366 -186,551 2,-129 190,-414 335,-503l26 152z"/>
 </g>
</svg>
