<?xml version="1.0" encoding="UTF-8"?>
<!DOCTYPE svg PUBLIC "-//W3C//DTD SVG 1.1//EN" "http://www.w3.org/Graphics/SVG/1.1/DTD/svg11.dtd">
<!-- Creator: CorelDRAW X8 -->
<svg xmlns="http://www.w3.org/2000/svg" xml:space="preserve" width="30mm" height="30mm" version="1.1" style="shape-rendering:geometricPrecision; text-rendering:geometricPrecision; image-rendering:optimizeQuality; fill-rule:evenodd; clip-rule:evenodd"
viewBox="0 0 3000 3000"
 xmlns:xlink="http://www.w3.org/1999/xlink">
 <defs>
  <style type="text/css">
   <![CDATA[
    .fil0 {fill:#153E6C}
   ]]>
  </style>
 </defs>
 <g id="Слой_x0020_1">
  <metadata id="CorelCorpID_0Corel-Layer"/>
  <path class="fil0" d="M1593 1676c44,21 119,107 121,114l-19 121c-45,-13 -58,-40 -102,-60l0 -175zm-219 110l83 -80c27,-27 12,-16 44,-31 1,84 14,148 -19,178 0,1 -27,20 -32,23 -26,19 -32,25 -60,32l-16 -122zm292 -185l170 0 65 110 -122 10 -113 -120zm-479 89c73,-88 54,-106 243,-86l-112 117c-46,-1 -101,-6 -131,-31zm479 -181c21,-45 75,-83 108,-125l123 27c-16,37 -43,70 -63,98l-168 0zm-346 -121l109 121 -169 1 -69 -113 129 -9zm274 -127c44,-16 58,-39 107,-56l13 117 -119 110 -2 -44 -1 -79 2 -48zm-199 -41c13,-39 3,-8 15,-25l91 70 -5 172 -118 -117 17 -100zm82 -401c-22,-23 -78,-62 -117,-73l-39 70 178 124 2 202c-42,-17 -61,-47 -104,-70l-68 22 -31 134c-29,-12 -14,-3 -38,-27 -17,-16 -24,-24 -39,-39 -101,-101 -74,-49 -41,-239 8,-46 1,-39 -6,-53l-67 -14 -38 147 -107 -99 -65 58c31,42 76,68 100,115l-142 27c-7,40 -4,54 17,88l211 -36c32,26 46,43 73,70 13,13 21,20 34,33 23,24 16,13 27,39l-121 21 -28 83 77 104c-306,5 -173,21 -316,-153 -28,-34 -2,-6 -24,-22l-67 43 81 133 -151 2 -3 91 154 0 -83 131 68 50c14,-10 7,-2 20,-17 0,0 18,-25 18,-26 9,-13 21,-31 32,-46 81,-117 35,-92 263,-91 -16,28 -51,78 -70,100l21 70 138 32 -149 155 -212 -43 -15 91 143 28 -100 110 64 64c32,-33 72,-82 112,-103 5,28 10,51 15,76 2,12 4,28 6,37l11 27c1,2 4,6 5,9l74 -12c12,-61 -27,-161 -31,-231 39,-31 98,-109 144,-128l17 120 74 30 113 -78 5 220 -179 114 43 78 134 -82 2 148 90 2 1 -148c62,24 80,59 143,78 13,-35 25,-39 36,-72 -31,-30 -145,-105 -178,-119l-1 -207c47,20 65,48 106,67 125,-41 51,-55 100,-155 58,27 96,93 147,133l-38 228 81 14 23 -72c5,-25 10,-48 15,-75 37,18 80,71 107,97l65 -56 -101 -110 142 -32c8,-36 7,-50 -16,-87l-211 37c-46,-51 -101,-93 -141,-149 119,-22 107,14 149,-84 -19,-43 -48,-81 -72,-118 308,-8 175,-22 318,153 24,30 7,9 24,22l66 -44 -82 -134 154 -2 -1 -91 -149 0 80 -130 -67 -50c-15,11 -8,3 -20,17 -4,4 -10,14 -14,20 -122,178 -49,137 -303,144 14,-43 38,-60 60,-100 -21,-95 -52,-83 -149,-100 18,-42 101,-116 145,-153l219 38 16 -91 -148 -28c23,-46 67,-75 100,-113l-61 -62 -108 102c-21,-70 -12,-100 -40,-146l-73 12c-14,66 25,147 29,217l-143 147 -25 -123 -67 -26c-48,22 -61,47 -117,66l0 -214 181 -116c-12,-33 -25,-42 -38,-74 -40,12 -95,49 -119,72 -25,15 32,19 -32,12l-1 -151 -75 0 -2 149c-58,14 -10,6 -30,-9z"/>
 </g>
</svg>
