<?xml version="1.0" encoding="UTF-8"?>
<!DOCTYPE svg PUBLIC "-//W3C//DTD SVG 1.1//EN" "http://www.w3.org/Graphics/SVG/1.1/DTD/svg11.dtd">
<!-- Creator: CorelDRAW X8 -->
<svg xmlns="http://www.w3.org/2000/svg" xml:space="preserve" width="25mm" height="25mm" version="1.1" style="shape-rendering:geometricPrecision; text-rendering:geometricPrecision; image-rendering:optimizeQuality; fill-rule:evenodd; clip-rule:evenodd"
viewBox="0 0 2500 2500"
 xmlns:xlink="http://www.w3.org/1999/xlink">
 <defs>
  <style type="text/css">
   <![CDATA[
    .fil0 {fill:#153E6C}
   ]]>
  </style>
 </defs>
 <g id="Слой_x0020_1">
  <metadata id="CorelCorpID_0Corel-Layer"/>
  <path class="fil0" d="M1008 878c89,-4 417,-13 475,8 23,54 17,358 14,428 -1,22 -3,62 -32,75l-410 1c-38,0 -68,-16 -74,-53l2 -425 25 -34zm-159 -205l2 -140 86 0 -2 256c-28,63 -176,42 -275,41l-3 -80 127 -8 -297 -299c-13,121 -8,1184 -4,1377 31,-15 16,-5 42,-30 16,-16 23,-24 39,-40 40,-40 208,-200 216,-228l-122 -1 1 -87 243 1c32,36 33,27 36,80l-1 217 -86 0 -1 -138c-30,15 -270,255 -294,295l1367 0c-24,-41 -259,-278 -296,-298l-2 142 -81 -1 -4 -250 39 -45 241 -3 1 87 -122 1c12,35 264,279 295,296 13,-361 3,-982 1,-1369l-299 291 126 7 -1 81c-317,5 -282,41 -280,-291l86 -5 1 144c39,-18 280,-260 297,-299l-1371 0c15,30 257,278 295,296z"/>
 </g>
</svg>
