<?xml version="1.0" encoding="UTF-8"?>
<!DOCTYPE svg PUBLIC "-//W3C//DTD SVG 1.1//EN" "http://www.w3.org/Graphics/SVG/1.1/DTD/svg11.dtd">
<!-- Creator: CorelDRAW X8 -->
<svg xmlns="http://www.w3.org/2000/svg" xml:space="preserve" width="25mm" height="25mm" version="1.1" style="shape-rendering:geometricPrecision; text-rendering:geometricPrecision; image-rendering:optimizeQuality; fill-rule:evenodd; clip-rule:evenodd"
viewBox="0 0 2500 2500"
 xmlns:xlink="http://www.w3.org/1999/xlink">
 <defs>
  <style type="text/css">
   <![CDATA[
    .fil0 {fill:#163E6C}
   ]]>
  </style>
 </defs>
 <g id="Слой_x0020_1">
  <metadata id="CorelCorpID_0Corel-Layer"/>
  <path class="fil0" d="M1997 1935c-154,59 -307,-18 -325,-172 -19,-156 119,-293 279,-253 165,41 193,248 55,314 -217,105 -237,-273 -49,-155 8,105 -30,-11 -30,165 258,-32 89,-402 -121,-254 -114,80 -139,363 191,355zm-1147 -1086c27,26 39,42 48,78l-54 30 39 57c43,-8 26,-14 66,-30 21,27 51,68 65,99l-50 43c11,32 9,32 42,56 24,-13 31,-22 56,-32 30,32 53,61 67,101 -22,14 -34,17 -55,44l44 52c22,-12 31,-21 56,-34 2,2 5,5 6,6l31 38c12,17 21,28 32,48l-29 30c-21,20 -5,1 -24,27l41 51 54 -38c28,19 56,59 72,98l-55 52c14,20 16,27 41,52l69 -38 34 57c-15,42 -45,115 -82,136l-581 -3c-28,-25 -74,-63 -89,-100l2 -836 154 -44zm-446 1264c85,-14 160,-56 240,-75 67,-15 1047,1 1245,-5 371,-11 308,-394 308,-617 0,-208 0,-417 0,-625 0,-115 10,-173 -45,-264 -140,-232 -505,-163 -550,109 -29,175 13,420 -9,606l-93 -565c-197,-4 -397,-1 -594,-1 -304,0 -210,-12 -501,85l-1 1352zm462 -458l340 4c-9,-32 -312,-466 -339,-484l-1 480z"/>
 </g>
</svg>
