<?xml version="1.0" encoding="UTF-8"?>
<!DOCTYPE svg PUBLIC "-//W3C//DTD SVG 1.1//EN" "http://www.w3.org/Graphics/SVG/1.1/DTD/svg11.dtd">
<!-- Creator: CorelDRAW X8 -->
<svg xmlns="http://www.w3.org/2000/svg" xml:space="preserve" width="25mm" height="25mm" version="1.1" style="shape-rendering:geometricPrecision; text-rendering:geometricPrecision; image-rendering:optimizeQuality; fill-rule:evenodd; clip-rule:evenodd"
viewBox="0 0 2500 2500"
 xmlns:xlink="http://www.w3.org/1999/xlink">
 <defs>
  <style type="text/css">
   <![CDATA[
    .fil0 {fill:#153E6C}
   ]]>
  </style>
 </defs>
 <g id="Слой_x0020_1">
  <metadata id="CorelCorpID_0Corel-Layer"/>
  <path class="fil0" d="M1029 375l-8 71 -60 40 -66 -34c-46,33 -122,105 -147,154l29 55 -32 66 -74 3c-27,66 -46,123 -51,201 58,3 91,8 144,27 39,13 77,42 112,46 35,-459 578,-558 786,-218 165,269 -8,590 -281,640 -149,28 -187,-18 -295,-45 6,139 -29,160 -53,266 66,14 116,41 195,43l36 -55 78 -3 29 58c73,1 148,-24 207,-52l4 -76 59 -28 67 29c62,-49 107,-74 147,-153l-29 -55 31 -64 76 -3c20,-63 50,-132 50,-210l-58 -35 -1 -68c24,-18 28,-20 59,-29 0,-81 -27,-154 -51,-217l-75 -3 -30 -53 28 -67c-32,-67 -86,-108 -147,-151l-66 30c-70,-40 -60,-30 -63,-106 -69,-31 -130,-48 -211,-54l-26 60c-110,2 -66,0 -114,-58 -73,2 -134,24 -199,48zm203 465c222,-106 370,250 136,343 -151,60 -309,-99 -233,-257 29,-62 38,-58 97,-86zm-2 -160c-154,36 -324,206 -254,414 8,26 42,70 61,105 63,124 211,171 351,136 156,-39 286,-205 242,-405 -34,-154 -201,-295 -400,-250zm-689 439c384,-96 518,498 134,586 -189,43 -330,-87 -363,-228 -44,-189 85,-322 229,-358zm0 -96c-196,33 -357,217 -324,450 73,504 863,399 777,-130 -32,-194 -221,-359 -453,-320zm-39 262c61,118 99,184 178,271l86 -5c132,-136 18,-384 -209,-348l-55 82zm333 546c26,55 77,113 113,161 40,52 77,109 123,158 42,-16 81,-51 110,-81 -13,-30 -199,-276 -232,-311 -49,16 -33,37 -114,73z"/>
 </g>
</svg>
