<?xml version="1.0" encoding="UTF-8"?>
<!DOCTYPE svg PUBLIC "-//W3C//DTD SVG 1.1//EN" "http://www.w3.org/Graphics/SVG/1.1/DTD/svg11.dtd">
<!-- Creator: CorelDRAW X8 -->
<svg xmlns="http://www.w3.org/2000/svg" xml:space="preserve" width="30mm" height="30mm" version="1.1" style="shape-rendering:geometricPrecision; text-rendering:geometricPrecision; image-rendering:optimizeQuality; fill-rule:evenodd; clip-rule:evenodd"
viewBox="0 0 3000 3000"
 xmlns:xlink="http://www.w3.org/1999/xlink">
 <defs>
  <style type="text/css">
   <![CDATA[
    .fil0 {fill:#153E6C}
   ]]>
  </style>
 </defs>
 <g id="Слой_x0020_1">
  <metadata id="CorelCorpID_0Corel-Layer"/>
  <path class="fil0" d="M270 1267l466 3 12 -92 -467 0 -11 89zm-124 315l511 1 11 -92 -510 0 -12 91zm1261 591l483 1 19 -127 -486 1 -16 125zm-508 -22c-31,-134 158,-165 186,-55 34,135 -159,171 -186,55zm37 -206c-230,75 -135,430 112,360 85,-24 161,-120 123,-241 -25,-82 -124,-155 -235,-119zm1438 274c-177,10 -153,-165 -58,-188 59,-14 107,20 117,67 16,70 -23,89 -59,121zm-93 -272c-241,80 -116,440 127,355 214,-74 118,-436 -127,-355zm-52 -662c208,-48 314,40 318,237l-351 0 33 -237zm-1618 -151l183 1 -22 178 -102 0c-30,5 -20,6 -26,9l-19 124 90 3 -22 176 -152 3 -35 244 -56 2 -15 113 336 0c230,-283 426,-7 458,1l752 0 -15 132 114 1c15,-334 493,-351 520,0l222 -1 12 -113 -51 -12c11,-94 58,-257 7,-332 -22,-32 -66,-76 -83,-107 -15,-28 -32,-125 -41,-161 -61,-268 -302,-202 -565,-218l44 -317 -1492 0 -42 274zm-536 286l59 1 402 0c64,0 61,-22 56,-94l-502 0 -15 93z"/>
 </g>
</svg>
