<?xml version="1.0" encoding="UTF-8"?>
<!DOCTYPE svg PUBLIC "-//W3C//DTD SVG 1.1//EN" "http://www.w3.org/Graphics/SVG/1.1/DTD/svg11.dtd">
<!-- Creator: CorelDRAW X8 -->
<svg xmlns="http://www.w3.org/2000/svg" xml:space="preserve" width="30mm" height="30mm" version="1.1" style="shape-rendering:geometricPrecision; text-rendering:geometricPrecision; image-rendering:optimizeQuality; fill-rule:evenodd; clip-rule:evenodd"
viewBox="0 0 3000 3000"
 xmlns:xlink="http://www.w3.org/1999/xlink">
 <defs>
  <style type="text/css">
   <![CDATA[
    .fil0 {fill:#163E6C}
   ]]>
  </style>
 </defs>
 <g id="Слой_x0020_1">
  <metadata id="CorelCorpID_0Corel-Layer"/>
  <path class="fil0" d="M2359 1644c495,-151 700,613 204,744 -477,127 -707,-591 -204,-744zm-306 -241c53,21 152,10 224,10l0 -598 -535 -1c-32,-8 -1,5 -20,-15l-1 -175 129 -4 -62 -188 -985 1 71 189 221 8 -180 105 -1 74 -435 2 -2 452 -180 1 -3 -454 -181 -1c-41,377 49,323 120,498 -52,-20 -51,-43 -123,-42l4 175 89 0 4 454 175 0c9,-42 12,-263 -2,-298 -23,-59 -87,-131 -113,-199 36,15 55,38 89,42 34,5 83,0 122,3l0 452 385 2c49,73 118,294 174,333l994 2c78,99 120,188 290,241 476,148 834,-447 482,-796 -271,-268 -566,-75 -606,-65l-1330 1 -137 -463 204 4 79 270c119,7 98,69 183,111l-114 -384 204 0 80 266c92,31 38,-17 184,122l-115 -388 205 1 79 272c110,9 93,75 168,110l-114 -383 204 1 76 252zm415 368c-46,48 -147,161 -176,246 -45,131 61,246 186,242 110,-4 218,-113 172,-241 -28,-76 -134,-211 -182,-247zm-415 -368c16,41 62,25 112,25 39,0 78,2 117,-2 13,-56 11,-544 3,-621l-563 -6c19,20 -12,7 20,15l535 1 0 598c-72,0 -171,11 -224,-10z"/>
 </g>
</svg>
