<?xml version="1.0" encoding="UTF-8"?>
<!DOCTYPE svg PUBLIC "-//W3C//DTD SVG 1.1//EN" "http://www.w3.org/Graphics/SVG/1.1/DTD/svg11.dtd">
<!-- Creator: CorelDRAW X8 -->
<svg xmlns="http://www.w3.org/2000/svg" xml:space="preserve" width="25mm" height="25mm" version="1.1" style="shape-rendering:geometricPrecision; text-rendering:geometricPrecision; image-rendering:optimizeQuality; fill-rule:evenodd; clip-rule:evenodd"
viewBox="0 0 2500 2500"
 xmlns:xlink="http://www.w3.org/1999/xlink">
 <defs>
  <style type="text/css">
   <![CDATA[
    .fil0 {fill:#153E6C}
   ]]>
  </style>
 </defs>
 <g id="Слой_x0020_1">
  <metadata id="CorelCorpID_0Corel-Layer"/>
  <path class="fil0" d="M1228 592l74 10c2,16 6,23 5,40 -2,43 0,24 -12,36 -146,22 -268,80 -362,149 -68,50 -193,190 -227,294 299,7 149,16 303,-118 410,-356 980,-27 949,455 -34,531 -693,697 -994,342 -130,-154 3,-142 -282,-141 56,207 241,382 425,456 705,286 1334,-538 885,-1142 -35,-47 -78,-82 -104,-119l69 -101c-35,-26 -109,-88 -148,-100 -32,34 -51,68 -77,97 -37,-11 -71,-29 -112,-42 -40,-12 -89,-19 -132,-32 -5,-40 -10,-47 0,-74l67 0 -1 -182 -324 0 -2 172zm117 720c-19,36 -64,53 -57,122 11,116 185,125 206,10 14,-80 -32,-79 -56,-132l0 -333 -92 -2 -1 335zm-1113 126l557 0 11 -93c-98,0 -496,-14 -558,9l-10 84zm157 -181l556 1 12 -87 -557 -4 -11 90zm0 357l557 2 10 -87 -554 -4 -13 89z"/>
 </g>
</svg>
