<?xml version="1.0" encoding="UTF-8"?>
<!DOCTYPE svg PUBLIC "-//W3C//DTD SVG 1.1//EN" "http://www.w3.org/Graphics/SVG/1.1/DTD/svg11.dtd">
<!-- Creator: CorelDRAW X8 -->
<svg xmlns="http://www.w3.org/2000/svg" xml:space="preserve" width="25mm" height="25mm" version="1.1" style="shape-rendering:geometricPrecision; text-rendering:geometricPrecision; image-rendering:optimizeQuality; fill-rule:evenodd; clip-rule:evenodd"
viewBox="0 0 2500 2500"
 xmlns:xlink="http://www.w3.org/1999/xlink">
 <defs>
  <style type="text/css">
   <![CDATA[
    .fil0 {fill:#163E6C}
   ]]>
  </style>
 </defs>
 <g id="Слой_x0020_1">
  <metadata id="CorelCorpID_0Corel-Layer"/>
  <path class="fil0" d="M1756 1141l362 7 -1 65 -361 1 0 -73zm-1211 1l135 -5 1 -142 71 2 1 144 145 2 -5 70 -141 5 3 134c-7,4 14,38 -78,6l-1 -136 -143 -9c-6,-36 -15,-56 12,-71zm963 -152l-141 359 241 4c-18,29 -75,94 -102,118 -82,74 -244,281 -325,333l125 -341 -264 -2 466 -471zm-363 -198l-714 5 1 1261 1787 0 0 -1265 -566 0 -2 -188 -653 2 3 93 144 92zm646 -88l289 -2c3,-118 4,-95 -52,-100l-7 -150 -175 1 -3 149 -56 25 4 77zm-1219 0l289 -2 3 -81 -57 -17 0 -152 -182 1 0 160 -57 2 4 89z"/>
 </g>
</svg>
