<?xml version="1.0" encoding="UTF-8"?>
<!DOCTYPE svg PUBLIC "-//W3C//DTD SVG 1.1//EN" "http://www.w3.org/Graphics/SVG/1.1/DTD/svg11.dtd">
<!-- Creator: CorelDRAW X8 -->
<svg xmlns="http://www.w3.org/2000/svg" xml:space="preserve" width="25mm" height="25mm" version="1.1" style="shape-rendering:geometricPrecision; text-rendering:geometricPrecision; image-rendering:optimizeQuality; fill-rule:evenodd; clip-rule:evenodd"
viewBox="0 0 2500 2500"
 xmlns:xlink="http://www.w3.org/1999/xlink">
 <defs>
  <style type="text/css">
   <![CDATA[
    .fil0 {fill:#153E6C}
   ]]>
  </style>
 </defs>
 <g id="Слой_x0020_1">
  <metadata id="CorelCorpID_0Corel-Layer"/>
  <path class="fil0" d="M1341 1550c41,29 84,76 132,100l74 -127c1,-2 10,-21 10,-22 3,-21 -1,-12 -5,-22 -45,-16 -65,10 -100,28 -38,19 -81,23 -111,43zm147 350l302 5 1 75c-57,17 -240,9 -309,6l6 -86zm-159 345l804 -1c-26,-404 -95,-677 -482,-730l-156 269c-58,-27 -100,-93 -167,-123l1 585zm-425 -737c-386,73 -466,318 -483,738l821 0 -4 -592c-59,32 -119,96 -181,128l-153 -274zm236 -1173l13 182c-17,-18 0,15 -19,-22 -5,-11 -8,-24 -12,-35 -11,-32 -11,-37 -28,-58 -95,48 -184,163 -186,318l257 42 -324 9 -1 180 120 3c0,248 56,500 312,504 269,3 325,-249 325,-504l127 -2 4 -179 -59 -7c-14,-167 -90,-332 -217,-367 -14,51 -24,87 -48,117l12 -181c-95,-19 -182,-17 -276,0zm-56 1315c40,-19 113,-74 140,-106 -43,-9 -75,-15 -113,-32 -48,-22 -48,-45 -109,-39 6,55 60,126 82,177z"/>
 </g>
</svg>
