<?xml version="1.0" encoding="UTF-8"?>
<!DOCTYPE svg PUBLIC "-//W3C//DTD SVG 1.1//EN" "http://www.w3.org/Graphics/SVG/1.1/DTD/svg11.dtd">
<!-- Creator: CorelDRAW X8 -->
<svg xmlns="http://www.w3.org/2000/svg" xml:space="preserve" width="25mm" height="25mm" version="1.1" style="shape-rendering:geometricPrecision; text-rendering:geometricPrecision; image-rendering:optimizeQuality; fill-rule:evenodd; clip-rule:evenodd"
viewBox="0 0 2500 2500"
 xmlns:xlink="http://www.w3.org/1999/xlink">
 <defs>
  <style type="text/css">
   <![CDATA[
    .fil0 {fill:#153E6C}
   ]]>
  </style>
 </defs>
 <g id="Слой_x0020_1">
  <metadata id="CorelCorpID_0Corel-Layer"/>
  <path class="fil0" d="M1989 1611l222 1 -1 201 -225 -4 4 -198zm-1392 -42l1043 0 -1 85c-144,6 -956,18 -1044,-5l2 -80zm2 -193l1041 1 -1 86 -1043 -1 3 -86zm-4 -190l1047 0 -5 86 -1041 -5 -1 -81zm-442 694l2254 -1c-1,-463 44,-412 -109,-435 -146,-22 -339,-41 -474,-74 -1,-3 -3,-10 -3,-8l-8 -397 -1357 -4 -61 194 -16 -754 -204 -1 -22 1480z"/>
 </g>
</svg>
