<?xml version="1.0" encoding="UTF-8"?>
<!DOCTYPE svg PUBLIC "-//W3C//DTD SVG 1.1//EN" "http://www.w3.org/Graphics/SVG/1.1/DTD/svg11.dtd">
<!-- Creator: CorelDRAW X8 -->
<svg xmlns="http://www.w3.org/2000/svg" xml:space="preserve" width="30mm" height="30mm" version="1.1" style="shape-rendering:geometricPrecision; text-rendering:geometricPrecision; image-rendering:optimizeQuality; fill-rule:evenodd; clip-rule:evenodd"
viewBox="0 0 3000 3000"
 xmlns:xlink="http://www.w3.org/1999/xlink">
 <defs>
  <style type="text/css">
   <![CDATA[
    .fil0 {fill:#163E6C}
   ]]>
  </style>
 </defs>
 <g id="Слой_x0020_1">
  <metadata id="CorelCorpID_0Corel-Layer"/>
  <path class="fil0" d="M2589 2002c12,43 48,16 102,20 -26,65 -70,2 -68,58 1,40 41,6 75,45 -29,38 -59,22 -110,12 -4,45 -15,43 20,58 96,41 236,-66 114,-115l32 -31c3,-56 -1,-71 -54,-80 -41,-7 -99,-3 -111,33zm-142 38c18,17 14,5 26,34 2,5 2,23 3,29l-39 -4 10 -59zm-106 154c110,7 68,-62 136,-39 53,39 -7,43 91,41l-70 -225 -84 -1 -73 224zm-143 2l48 1 0 -170 85 -6 3 -50 -147 0c-3,38 -2,72 -2,109 0,19 -1,39 -1,57l14 59zm652 -37c-101,500 -862,356 -759,-154 36,-182 226,-350 460,-300 186,40 346,226 299,454zm-2040 -1654l69 187 227 7 -183 105 -6 74 -432 1 -1 454 -181 -4 0 -451 -186 2c0,76 -15,252 13,308 31,59 87,131 109,189 -58,-19 -40,-43 -121,-43l1 177 90 2 6 452 177 -4c39,-376 -57,-326 -114,-489 37,15 50,35 88,39 38,5 75,-2 119,4l0 449 380 0c41,43 122,255 167,335l1015 0c61,209 449,377 715,167 388,-306 129,-937 -374,-854 -83,13 -153,65 -193,72l-1319 1 -140 -465 203 -1c11,33 77,265 93,271 2,1 6,2 8,3l47 11c8,4 32,29 41,38 26,24 48,46 75,65l-113 -388 203 2 87 273c131,14 52,55 175,107l-114 -381 187 -1c57,15 56,245 116,274 111,52 66,64 150,114l-113 -388 202 2 85 275 219 1c9,-71 10,-563 -3,-618l-554 -4 0 -182 124 -1c-6,-42 -18,-62 -32,-102 -15,-41 -11,-67 -48,-88l-964 3z"/>
 </g>
</svg>
