<?xml version="1.0" encoding="UTF-8"?>
<!DOCTYPE svg PUBLIC "-//W3C//DTD SVG 1.1//EN" "http://www.w3.org/Graphics/SVG/1.1/DTD/svg11.dtd">
<!-- Creator: CorelDRAW X8 -->
<svg xmlns="http://www.w3.org/2000/svg" xml:space="preserve" width="25mm" height="25mm" version="1.1" style="shape-rendering:geometricPrecision; text-rendering:geometricPrecision; image-rendering:optimizeQuality; fill-rule:evenodd; clip-rule:evenodd"
viewBox="0 0 2500 2500"
 xmlns:xlink="http://www.w3.org/1999/xlink">
 <defs>
  <style type="text/css">
   <![CDATA[
    .fil0 {fill:#153E6C}
   ]]>
  </style>
 </defs>
 <g id="Слой_x0020_1">
  <metadata id="CorelCorpID_0Corel-Layer"/>
  <path class="fil0" d="M900 1239c-5,-54 1,-61 33,-90 48,-1 45,2 79,28 9,104 -42,106 -112,62zm604 25c-110,7 -116,-117 1,-115 58,49 47,73 -1,115zm-229 -32c-59,71 -135,17 -112,-46 19,-54 125,-64 112,46zm-65 444l10 111 270 -196c85,-63 162,-153 190,-290 60,-296 -153,-525 -395,-560 -279,-40 -509,171 -533,416 -28,293 187,504 458,519zm-665 -1033l30 33c-39,95 -144,127 -194,487l-48 14 59 411c6,38 2,28 17,54l187 -25 -68 -460 -49 -22c16,-193 94,-273 163,-392l46 24c69,-47 71,-87 217,-165 191,-102 428,-98 621,-3 111,54 151,107 224,169l45 -25c82,109 144,218 166,392 -16,13 1,3 -21,13 -13,6 -3,-1 -23,9l-64 417c-3,37 3,36 10,64 -43,76 -150,179 -224,225 -97,60 -194,103 -325,117l-15 -47 -279 1 -3 191 286 6 3 -55c171,-28 277,-65 400,-147 90,-59 220,-186 264,-292l70 5 72 -462 -54 -17c-33,-228 -78,-334 -193,-476 10,-14 1,-1 13,-16l18 -28c-46,-73 -174,-167 -275,-217 -121,-60 -241,-96 -397,-97 -253,-2 -590,151 -679,314z"/>
 </g>
</svg>
