<?xml version="1.0" encoding="UTF-8"?>
<!DOCTYPE svg PUBLIC "-//W3C//DTD SVG 1.1//EN" "http://www.w3.org/Graphics/SVG/1.1/DTD/svg11.dtd">
<!-- Creator: CorelDRAW X8 -->
<svg xmlns="http://www.w3.org/2000/svg" xml:space="preserve" width="30mm" height="30mm" version="1.1" style="shape-rendering:geometricPrecision; text-rendering:geometricPrecision; image-rendering:optimizeQuality; fill-rule:evenodd; clip-rule:evenodd"
viewBox="0 0 3000 3000"
 xmlns:xlink="http://www.w3.org/1999/xlink">
 <defs>
  <style type="text/css">
   <![CDATA[
    .fil0 {fill:#153E6B}
   ]]>
  </style>
 </defs>
 <g id="Слой_x0020_1">
  <metadata id="CorelCorpID_0Corel-Layer"/>
  <path class="fil0" d="M1531 960l76 0 1 -311 -80 0 3 311zm-3 1392l80 0 0 -312 -45 1 -35 0 0 311zm-592 -282c16,36 21,34 57,63l226 -218c-15,-33 -33,-47 -58,-65l-225 220zm983 -983c14,29 16,35 57,64l226 -218c-15,-36 -12,-33 -58,-64l-225 218zm183 456l322 3 0 -90 -321 0 -1 87zm-185 369l224 224c15,-11 23,-16 32,-24 25,-24 17,-15 28,-41l-221 -224 -63 65zm-1203 -367l324 1 -1 -88 -322 -3 -1 90zm223 -614l221 222 63 -62c-36,-44 -192,-205 -228,-222 -37,28 -41,26 -56,62zm533 140c-208,50 -390,252 -333,519 120,566 989,398 865,-182 -45,-212 -261,-402 -532,-337z"/>
 </g>
</svg>
