<?xml version="1.0" encoding="UTF-8"?>
<!DOCTYPE svg PUBLIC "-//W3C//DTD SVG 1.1//EN" "http://www.w3.org/Graphics/SVG/1.1/DTD/svg11.dtd">
<!-- Creator: CorelDRAW X8 -->
<svg xmlns="http://www.w3.org/2000/svg" xml:space="preserve" width="25mm" height="25mm" version="1.1" style="shape-rendering:geometricPrecision; text-rendering:geometricPrecision; image-rendering:optimizeQuality; fill-rule:evenodd; clip-rule:evenodd"
viewBox="0 0 2500 2500"
 xmlns:xlink="http://www.w3.org/1999/xlink">
 <defs>
  <style type="text/css">
   <![CDATA[
    .fil0 {fill:#153E6C}
   ]]>
  </style>
 </defs>
 <g id="Слой_x0020_1">
  <metadata id="CorelCorpID_0Corel-Layer"/>
  <path class="fil0" d="M328 1947c158,-51 235,-81 427,-85 265,-6 268,30 449,63l-1 -1111c-248,-121 -678,-133 -875,32l0 1101zm1309 -1010c-283,-155 -132,-441 -49,-461 16,58 -19,69 -7,127 3,16 36,88 43,103l192 -2c10,-27 42,-91 44,-112 4,-51 -33,-77 -8,-118 65,36 131,144 109,264 -23,128 -100,140 -161,207l-2 658 -160 -2 -1 -664zm-256 -165l-90 42 0 1112c363,-85 510,-98 875,21l1 -1075c-20,-62 -66,-74 -118,-96 30,-274 -48,-255 -165,-417l-148 74c12,136 84,187 -55,176 -19,-55 16,-118 20,-173l-139 -80c-223,230 -158,207 -181,416zm-1052 1398c554,-197 838,-3 918,-3 106,1 320,-193 919,3l1 -102c-59,-96 -319,-118 -451,-119 -208,-2 -309,25 -469,100 -158,-74 -267,-102 -470,-100 -129,1 -393,25 -450,119l2 102z"/>
 </g>
</svg>
