<?xml version="1.0" encoding="UTF-8"?>
<!DOCTYPE svg PUBLIC "-//W3C//DTD SVG 1.1//EN" "http://www.w3.org/Graphics/SVG/1.1/DTD/svg11.dtd">
<!-- Creator: CorelDRAW X8 -->
<svg xmlns="http://www.w3.org/2000/svg" xml:space="preserve" width="25mm" height="25mm" version="1.1" style="shape-rendering:geometricPrecision; text-rendering:geometricPrecision; image-rendering:optimizeQuality; fill-rule:evenodd; clip-rule:evenodd"
viewBox="0 0 2500 2500"
 xmlns:xlink="http://www.w3.org/1999/xlink">
 <defs>
  <style type="text/css">
   <![CDATA[
    .fil0 {fill:#163E6C}
   ]]>
  </style>
 </defs>
 <g id="Слой_x0020_1">
  <metadata id="CorelCorpID_0Corel-Layer"/>
  <path class="fil0" d="M1742 1215c17,-158 6,-299 12,-455l243 -5 2 358c-9,36 -58,38 -114,57 -49,17 -93,36 -143,45zm-1297 -460l244 0c11,156 -7,304 12,464l-258 -86 2 -378zm625 146c140,-105 77,-109 219,-102l0 381 -103 1 1 -266c-30,17 -37,30 -63,47 -30,-21 -40,-32 -54,-61zm594 485c46,-69 22,-49 110,-80 286,-100 319,-66 318,-226 0,-123 0,-246 0,-369 -14,-19 -24,-27 -37,-46l-300 -1 -1 -124 96 -1 -5 -203 -1253 2 2 201 286 3c-28,26 -71,42 -110,61 -50,23 -62,31 -93,61 -65,27 -304,-52 -325,58 0,123 1,246 0,369 -1,155 75,131 329,219 80,28 59,15 100,80 35,56 121,145 191,166l0 192 149 5 -1 175 -260 105 0 100 724 -1 -1 -103 -259 -98 0 -181 148 -1 1 -187c76,-42 148,-110 191,-176z"/>
 </g>
</svg>
