<?xml version="1.0" encoding="UTF-8"?>
<!DOCTYPE svg PUBLIC "-//W3C//DTD SVG 1.1//EN" "http://www.w3.org/Graphics/SVG/1.1/DTD/svg11.dtd">
<!-- Creator: CorelDRAW X8 -->
<svg xmlns="http://www.w3.org/2000/svg" xml:space="preserve" width="25mm" height="25mm" version="1.1" style="shape-rendering:geometricPrecision; text-rendering:geometricPrecision; image-rendering:optimizeQuality; fill-rule:evenodd; clip-rule:evenodd"
viewBox="0 0 2500 2500"
 xmlns:xlink="http://www.w3.org/1999/xlink">
 <defs>
  <style type="text/css">
   <![CDATA[
    .fil0 {fill:#163E6C}
   ]]>
  </style>
 </defs>
 <g id="Слой_x0020_1">
  <metadata id="CorelCorpID_0Corel-Layer"/>
  <path class="fil0" d="M1113 1197l516 0 0 148 -166 2 0 532 -184 2 0 -532 -166 -4 0 -148zm-41 -691l553 -1 31 310 -613 1 29 -310zm-110 309c-109,4 -265,-11 -303,169l-113 826c-15,113 -54,306 -52,412l1708 0c4,-76 -151,-1009 -176,-1163 -28,-183 -45,-179 -187,-248l-40 -410 -101 -78 -718 1c-115,142 -71,-18 -116,429l98 62z"/>
 </g>
</svg>
