<?xml version="1.0" encoding="UTF-8"?>
<!DOCTYPE svg PUBLIC "-//W3C//DTD SVG 1.1//EN" "http://www.w3.org/Graphics/SVG/1.1/DTD/svg11.dtd">
<!-- Creator: CorelDRAW X8 -->
<svg xmlns="http://www.w3.org/2000/svg" xml:space="preserve" width="25mm" height="25mm" version="1.1" style="shape-rendering:geometricPrecision; text-rendering:geometricPrecision; image-rendering:optimizeQuality; fill-rule:evenodd; clip-rule:evenodd"
viewBox="0 0 2500 2500"
 xmlns:xlink="http://www.w3.org/1999/xlink">
 <defs>
  <style type="text/css">
   <![CDATA[
    .fil0 {fill:#163E6C}
   ]]>
  </style>
 </defs>
 <g id="Слой_x0020_1">
  <metadata id="CorelCorpID_0Corel-Layer"/>
  <path class="fil0" d="M629 861l510 0c36,115 90,249 134,367 87,228 91,189 87,418 -131,0 -281,-29 -394,-79 -22,-45 -44,-156 -57,-210 -24,-91 -15,-145 -127,-130 -5,53 7,128 12,183 10,122 0,60 57,127l-223 -58 1 -618zm1031 204c70,36 92,22 187,16 142,-8 467,-17 567,-33l-1 -58 -669 -1 -1 -816 -98 -2 -2 134 -163 1c-17,199 25,1266 -11,1339 -12,-13 -15,6 -16,-54 0,-17 1,-38 1,-56 0,-35 3,-70 -6,-103l-188 -504c-73,-207 -38,-158 -539,-158 -91,0 -130,-20 -186,44l-1 738c-19,-16 -12,3 -36,-52 -7,-18 -12,-31 -18,-49l-228 5c-28,30 -62,53 -77,90l0 540 143 -1c-23,-336 452,-346 431,2l406 -3c-32,-172 44,-289 175,-329 167,-51 260,49 329,168l1 -858zm-284 852c113,-44 174,128 69,175 -56,25 -113,-7 -128,-48 -35,-92 27,-114 59,-127zm-186 132c47,263 480,214 430,-86 -45,-271 -483,-218 -430,86zm-689 -66c98,-55 150,97 64,134 -46,20 -85,-8 -100,-37 -27,-52 5,-80 36,-97zm199 122c77,-219 -245,-327 -330,-127 -95,223 251,351 330,127zm1141 -1205l615 2 0 -517 -615 0 0 515zm0 0l0 -515 615 0 0 517c20,-48 9,-498 5,-529l-633 4c0,79 -17,479 13,523z"/>
 </g>
</svg>
