<?xml version="1.0" encoding="UTF-8"?>
<!DOCTYPE svg PUBLIC "-//W3C//DTD SVG 1.1//EN" "http://www.w3.org/Graphics/SVG/1.1/DTD/svg11.dtd">
<!-- Creator: CorelDRAW X8 -->
<svg xmlns="http://www.w3.org/2000/svg" xml:space="preserve" width="25mm" height="25mm" version="1.1" style="shape-rendering:geometricPrecision; text-rendering:geometricPrecision; image-rendering:optimizeQuality; fill-rule:evenodd; clip-rule:evenodd"
viewBox="0 0 2500 2500"
 xmlns:xlink="http://www.w3.org/1999/xlink">
 <defs>
  <style type="text/css">
   <![CDATA[
    .fil0 {fill:#163E6C}
   ]]>
  </style>
 </defs>
 <g id="Слой_x0020_1">
  <metadata id="CorelCorpID_0Corel-Layer"/>
  <path class="fil0" d="M1252 919c92,-1 163,-29 160,-128 -3,-99 -70,-120 -165,-120l-4 -267 -720 1 1 721 177 0c43,-10 48,-165 224,-165 172,0 171,138 223,165l97 -2 7 -205zm-6 867c-14,-35 -16,-21 -56,-42 -122,-65 -146,-219 -58,-321 39,-44 58,-47 114,-71l-1 -136 -195 -2c-8,-96 -24,-166 -125,-166 -101,0 -118,73 -125,167l-278 2 6 720 717 -1 1 -150zm77 -103l15 250 713 0 -3 -717 -152 1c-66,222 -349,218 -411,-2l-151 0 -3 218c-88,14 -166,18 -164,129 2,94 66,121 156,121zm21 -1093c86,36 160,92 156,213 -3,104 -79,178 -167,196l2 127 232 5c3,94 27,165 128,162 99,-2 115,-78 120,-167l231 -1 4 -717 -712 0 6 182z"/>
 </g>
</svg>
