<?xml version="1.0" encoding="UTF-8"?>
<!DOCTYPE svg PUBLIC "-//W3C//DTD SVG 1.1//EN" "http://www.w3.org/Graphics/SVG/1.1/DTD/svg11.dtd">
<!-- Creator: CorelDRAW X8 -->
<svg xmlns="http://www.w3.org/2000/svg" xml:space="preserve" width="25mm" height="25mm" version="1.1" style="shape-rendering:geometricPrecision; text-rendering:geometricPrecision; image-rendering:optimizeQuality; fill-rule:evenodd; clip-rule:evenodd"
viewBox="0 0 2500 2500"
 xmlns:xlink="http://www.w3.org/1999/xlink">
 <defs>
  <style type="text/css">
   <![CDATA[
    .fil0 {fill:#163E6C}
   ]]>
  </style>
 </defs>
 <g id="Слой_x0020_1">
  <metadata id="CorelCorpID_0Corel-Layer"/>
  <path class="fil0" d="M927 919c-16,-135 80,-243 197,-259 315,-43 354,433 55,459 -132,11 -239,-85 -252,-200zm365 634c56,-85 131,-131 222,-289 62,-108 121,-248 113,-401 -15,-272 -266,-498 -569,-436 -405,82 -501,553 -167,972l241 253c-270,-68 -153,-122 -569,-97l147 436 1155 -2 -148 -436 -425 0z"/>
 </g>
</svg>
