<?xml version="1.0" encoding="UTF-8"?>
<!DOCTYPE svg PUBLIC "-//W3C//DTD SVG 1.1//EN" "http://www.w3.org/Graphics/SVG/1.1/DTD/svg11.dtd">
<!-- Creator: CorelDRAW X8 -->
<svg xmlns="http://www.w3.org/2000/svg" xml:space="preserve" width="25mm" height="25mm" version="1.1" style="shape-rendering:geometricPrecision; text-rendering:geometricPrecision; image-rendering:optimizeQuality; fill-rule:evenodd; clip-rule:evenodd"
viewBox="0 0 2500 2500"
 xmlns:xlink="http://www.w3.org/1999/xlink">
 <defs>
  <style type="text/css">
   <![CDATA[
    .fil0 {fill:#163E6C}
   ]]>
  </style>
 </defs>
 <g id="Слой_x0020_1">
  <metadata id="CorelCorpID_0Corel-Layer"/>
  <path class="fil0" d="M863 413l411 0c37,66 86,219 116,304 48,130 90,185 70,349 -99,3 -241,-29 -326,-70 -59,-225 -41,-292 -152,-284 -6,233 47,244 50,260l-172 -45 3 -514zm414 1026c-10,-90 -13,-138 39,-204 105,-134 352,-132 395,133l54 1c-3,76 -13,48 44,113l491 -33 -4 -52 -445 0 -1 -686 -81 -5 -4 -340 -176 2c-10,113 18,650 -14,698 -41,-21 -8,-75 -20,-165l-153 -419c-63,-162 -26,-162 -218,-162 -115,0 -258,-8 -369,2l-46 43 0 628c-86,-100 28,-92 -235,-90 -24,30 -57,45 -61,88l1 447 116 0c-3,-290 365,-294 367,1l320 0zm-21 290c107,-49 163,116 65,159 -50,22 -102,-9 -117,-46 -25,-61 10,-94 52,-113zm-984 0c111,-44 162,114 66,159 -50,22 -103,-8 -118,-45 -10,-26 -9,-46 1,-72 16,-42 20,-29 51,-42zm1967 0c107,-45 161,119 65,160 -51,21 -100,-5 -116,-48 -27,-69 13,-96 51,-112zm-2078 122c25,94 106,103 218,103l1586 0c135,0 517,61 444,-189 -29,-99 -103,-104 -220,-103l-1586 0c-139,0 -508,-62 -442,189zm1288 -551c95,-60 170,86 81,138 -94,56 -170,-82 -81,-138zm216 126c78,-229 -265,-342 -349,-123 -90,235 269,357 349,123zm-950 -57c61,-61 147,-10 117,63 -21,50 -139,68 -117,-63zm-89 57c20,182 321,161 294,-45 -25,-182 -316,-153 -294,45z"/>
 </g>
</svg>
