<?xml version="1.0" encoding="UTF-8"?>
<!DOCTYPE svg PUBLIC "-//W3C//DTD SVG 1.1//EN" "http://www.w3.org/Graphics/SVG/1.1/DTD/svg11.dtd">
<!-- Creator: CorelDRAW X8 -->
<svg xmlns="http://www.w3.org/2000/svg" xml:space="preserve" width="25mm" height="25mm" version="1.1" style="shape-rendering:geometricPrecision; text-rendering:geometricPrecision; image-rendering:optimizeQuality; fill-rule:evenodd; clip-rule:evenodd"
viewBox="0 0 2500 2500"
 xmlns:xlink="http://www.w3.org/1999/xlink">
 <defs>
  <style type="text/css">
   <![CDATA[
    .fil0 {fill:#153E6C}
   ]]>
  </style>
 </defs>
 <g id="Слой_x0020_1">
  <metadata id="CorelCorpID_0Corel-Layer"/>
  <path class="fil0" d="M1299 1428c-11,-149 31,-369 127,-422 -22,69 -46,125 -67,204l-43 192c-7,19 -10,17 -17,26zm-294 1c-7,-9 -9,-8 -18,-27 0,0 -6,-24 -6,-27 -48,-217 -42,-164 -103,-368 96,54 136,270 127,422zm-375 153c168,-1 341,39 517,39 177,1 355,-39 527,-39 -15,-196 -38,-391 -56,-584 -21,-230 -118,-179 -460,-179 -336,0 -451,-48 -471,168 -19,196 -43,396 -57,595zm-6 95c-146,46 -132,157 -101,303 13,60 17,129 77,145 42,11 1090,13 1127,-11 55,-36 95,-280 62,-350 -56,-122 -207,-89 -342,-75 -143,14 -270,26 -413,15 -79,-6 -359,-43 -410,-27zm273 -953c48,17 451,17 513,1 23,-43 14,-198 -18,-240 -52,-66 -134,-51 -234,-51 -98,0 -187,-18 -240,45 -30,35 -57,199 -21,245z"/>
 </g>
</svg>
