<?xml version="1.0" encoding="UTF-8"?>
<!DOCTYPE svg PUBLIC "-//W3C//DTD SVG 1.1//EN" "http://www.w3.org/Graphics/SVG/1.1/DTD/svg11.dtd">
<!-- Creator: CorelDRAW X8 -->
<svg xmlns="http://www.w3.org/2000/svg" xml:space="preserve" width="25mm" height="25mm" version="1.1" style="shape-rendering:geometricPrecision; text-rendering:geometricPrecision; image-rendering:optimizeQuality; fill-rule:evenodd; clip-rule:evenodd"
viewBox="0 0 2500 2500"
 xmlns:xlink="http://www.w3.org/1999/xlink">
 <defs>
  <style type="text/css">
   <![CDATA[
    .fil0 {fill:#153E6C}
   ]]>
  </style>
 </defs>
 <g id="Слой_x0020_1">
  <metadata id="CorelCorpID_0Corel-Layer"/>
  <path class="fil0" d="M784 1035c90,-23 170,36 192,108 29,97 -37,184 -109,204 -209,58 -306,-252 -83,-312zm-248 214c68,363 635,273 568,-112 -24,-141 -172,-264 -340,-229 -142,29 -261,164 -228,341zm1106 233c189,-71 296,218 111,293 -190,78 -324,-213 -111,-293zm199 -175c-19,17 -33,35 -53,49 -81,-28 -126,-6 -205,-5l-33 -48 -66 33 20 70c-57,70 -75,73 -99,178l-69 12 4 69 65 9c21,102 43,111 101,179l-22 70 66 29 34 -44c88,0 113,22 210,-6 14,16 30,34 48,52l56 -35 -17 -66c44,-51 77,-86 97,-176l71 -17 0 -63 -71 -16c-22,-102 -47,-116 -99,-176l19 -69 -57 -29zm-1397 -80c-48,-490 698,-566 750,-79 54,502 -700,578 -750,79zm238 -626l-18 74 -52 16 -54 -41c-74,32 -98,66 -149,95l16 79 -27 34 -76 -3c-33,46 -69,114 -77,171l46 31 -5 58 -65 31c-7,64 -3,130 17,186 67,15 61,2 80,62l-37 56c19,62 69,127 107,154l66 -20 35 31 -7 70 36 28c39,23 91,47 142,53l29 -47 53 5 34 68c261,11 165,-51 205,-84l44 -16 43 37c60,-8 132,-65 162,-100l8 -102 78 1c33,-37 69,-112 77,-167 -20,-23 -27,-28 -45,-45l6 -51 66 -26 -11 -191c-113,-12 -100,-47 -47,-121 -36,-66 -64,-102 -99,-149l-80 19 -31 -33 7 -73c-53,-24 -98,-60 -167,-73 -28,21 -25,22 -45,47l-58 -8 -21 -64 -186 8z"/>
 </g>
</svg>
