<?xml version="1.0" encoding="UTF-8"?>
<!DOCTYPE svg PUBLIC "-//W3C//DTD SVG 1.1//EN" "http://www.w3.org/Graphics/SVG/1.1/DTD/svg11.dtd">
<!-- Creator: CorelDRAW X8 -->
<svg xmlns="http://www.w3.org/2000/svg" xml:space="preserve" width="25mm" height="25mm" version="1.1" style="shape-rendering:geometricPrecision; text-rendering:geometricPrecision; image-rendering:optimizeQuality; fill-rule:evenodd; clip-rule:evenodd"
viewBox="0 0 2500 2500"
 xmlns:xlink="http://www.w3.org/1999/xlink">
 <defs>
  <style type="text/css">
   <![CDATA[
    .fil0 {fill:#153E6C}
   ]]>
  </style>
 </defs>
 <g id="Слой_x0020_1">
  <metadata id="CorelCorpID_0Corel-Layer"/>
  <path class="fil0" d="M1596 1458c228,-42 410,121 446,309 46,234 -123,413 -306,452 -491,103 -667,-662 -140,-761zm-1138 537l3 42 750 0c29,9 72,136 204,213 449,261 926,-267 644,-678 -95,-139 -107,-97 -184,-169l-1 -405 -610 0 0 316 -196 1 -1 -316 -609 -1 0 997zm22 -1087l585 1 13 -157 176 -1 9 153 583 5 -86 -364 -1185 0 -95 363zm1161 1026c-59,-17 -81,-68 -173,-133l-56 60c22,39 22,26 56,56 44,40 133,136 180,155 58,-101 243,-308 286,-397l-73 -51c-48,81 -193,245 -220,310z"/>
 </g>
</svg>
