<?xml version="1.0" encoding="UTF-8"?>
<!DOCTYPE svg PUBLIC "-//W3C//DTD SVG 1.1//EN" "http://www.w3.org/Graphics/SVG/1.1/DTD/svg11.dtd">
<!-- Creator: CorelDRAW X8 -->
<svg xmlns="http://www.w3.org/2000/svg" xml:space="preserve" width="25mm" height="25mm" version="1.1" style="shape-rendering:geometricPrecision; text-rendering:geometricPrecision; image-rendering:optimizeQuality; fill-rule:evenodd; clip-rule:evenodd"
viewBox="0 0 2500 2500"
 xmlns:xlink="http://www.w3.org/1999/xlink">
 <defs>
  <style type="text/css">
   <![CDATA[
    .fil0 {fill:#163E6C}
   ]]>
  </style>
 </defs>
 <g id="Слой_x0020_1">
  <metadata id="CorelCorpID_0Corel-Layer"/>
  <path class="fil0" d="M634 663l192 -2 4 71 755 3 4 -74 193 0 1 1471 -1145 0 -4 -1469zm418 -254l316 1 1 52 -320 -3 3 -50zm-537 1846l1391 -1 -1 -1715 -317 -5 -5 -71 -120 -4 -4 -99 -56 -44 -403 1c-54,55 -41,22 -44,145l-125 0 -3 75 -317 4 4 1714zm327 -620l216 3 -77 118c-32,-22 -22,-20 -47,-54 -36,8 -45,17 -78,46l76 123c146,2 75,-29 180,-134l0 170 -273 1 3 -273zm360 326c3,-83 1,-166 1,-249 0,-221 21,-104 45,-202l-71 -44 -53 78 -337 1c-13,14 -22,22 -39,45l0 346c14,89 161,63 287,63 99,0 110,17 167,-38zm-89 -699c-13,22 5,9 -23,16l-252 -6 -4 -242c7,-32 -3,-14 20,-30l202 1c-13,33 -52,89 -82,120l-39 -61 -79 50 75 126c145,2 72,-23 180,-134l2 160zm12 -354l-336 1 -40 43 -1 347c10,37 27,54 63,65l335 0 56 -40 5 -367c9,-33 31,-36 44,-87l-70 -38 -56 76zm168 247l379 1 1 -93 -380 0 0 92zm0 482l380 0 -2 -93 -378 1 0 92zm2 152l376 0 2 -91 -381 1 3 90zm-3 -788l381 1 -2 -91 -375 0 -4 90z"/>
 </g>
</svg>
