<?xml version="1.0" encoding="UTF-8"?>
<!DOCTYPE svg PUBLIC "-//W3C//DTD SVG 1.1//EN" "http://www.w3.org/Graphics/SVG/1.1/DTD/svg11.dtd">
<!-- Creator: CorelDRAW X8 -->
<svg xmlns="http://www.w3.org/2000/svg" xml:space="preserve" width="25mm" height="25mm" version="1.1" style="shape-rendering:geometricPrecision; text-rendering:geometricPrecision; image-rendering:optimizeQuality; fill-rule:evenodd; clip-rule:evenodd"
viewBox="0 0 2500 2500"
 xmlns:xlink="http://www.w3.org/1999/xlink">
 <defs>
  <style type="text/css">
   <![CDATA[
    .fil0 {fill:#153E6C}
   ]]>
  </style>
 </defs>
 <g id="Слой_x0020_1">
  <metadata id="CorelCorpID_0Corel-Layer"/>
  <path class="fil0" d="M418 1659c11,-13 13,-8 22,-33 8,-23 1,-46 31,-96 10,140 0,350 114,414 62,35 335,94 421,114 334,82 626,80 932,-38 149,-58 243,-96 299,-237 57,-146 45,-315 -28,-434 -103,-168 -330,-259 -555,-127 -25,15 -59,40 -79,56 -35,29 -30,38 -72,59 -72,-21 -111,-69 -212,-73 -92,-4 -170,37 -215,86 4,136 -11,263 -96,324 123,-462 -80,-406 -150,-689 -76,-16 -117,-36 -122,-116 -42,1 -35,2 -58,-14 65,-23 78,-25 87,-107 25,41 53,74 75,109 -29,-5 -17,-5 -36,-11 -70,-20 -68,60 28,85 215,55 121,-141 109,-204 76,106 55,126 87,168l45 -23c5,-97 -42,-127 -64,-199 93,88 78,129 109,169l35 -27c8,-70 -30,-130 -53,-176l96 132c61,-55 11,-121 -28,-186 -44,-74 -72,-108 -188,-89 -143,23 -346,92 -406,177 -66,92 -88,322 -112,458 -39,223 -47,305 -16,528z"/>
 </g>
</svg>
