<?xml version="1.0" encoding="UTF-8"?>
<!DOCTYPE svg PUBLIC "-//W3C//DTD SVG 1.1//EN" "http://www.w3.org/Graphics/SVG/1.1/DTD/svg11.dtd">
<!-- Creator: CorelDRAW X8 -->
<svg xmlns="http://www.w3.org/2000/svg" xml:space="preserve" width="25mm" height="25mm" version="1.1" style="shape-rendering:geometricPrecision; text-rendering:geometricPrecision; image-rendering:optimizeQuality; fill-rule:evenodd; clip-rule:evenodd"
viewBox="0 0 2500 2500"
 xmlns:xlink="http://www.w3.org/1999/xlink">
 <defs>
  <style type="text/css">
   <![CDATA[
    .fil0 {fill:#163E6C}
   ]]>
  </style>
 </defs>
 <g id="Слой_x0020_1">
  <metadata id="CorelCorpID_0Corel-Layer"/>
  <path class="fil0" d="M1426 1912c12,44 134,119 174,142 32,-22 27,-31 53,-62 -18,-30 -97,-86 -132,-100l-3 -275 -89 -1 -3 296zm-2 -438c221,-36 407,137 434,327 33,233 -135,413 -330,440 -490,68 -631,-682 -104,-767zm-325 -802c222,-218 775,355 557,556l-281 -275c-59,-58 -247,-225 -276,-281zm-192 694l-149 -38c-17,30 -399,410 -435,434l0 243 229 4 41 -41 -17 -96c146,32 124,17 104,-107l95 20 279 -277 43 47c-49,92 -95,138 -102,279 -16,327 304,582 618,483 357,-113 470,-567 165,-829 -39,-33 -79,-46 -115,-78 29,-49 53,-60 87,-96 100,-106 89,-280 24,-413 -90,-186 -389,-469 -650,-381 -103,35 -140,85 -200,146l-353 355 336 345z"/>
 </g>
</svg>
