<?xml version="1.0" encoding="UTF-8"?>
<!DOCTYPE svg PUBLIC "-//W3C//DTD SVG 1.1//EN" "http://www.w3.org/Graphics/SVG/1.1/DTD/svg11.dtd">
<!-- Creator: CorelDRAW X8 -->
<svg xmlns="http://www.w3.org/2000/svg" xml:space="preserve" width="30mm" height="30mm" version="1.1" style="shape-rendering:geometricPrecision; text-rendering:geometricPrecision; image-rendering:optimizeQuality; fill-rule:evenodd; clip-rule:evenodd"
viewBox="0 0 3000 3000"
 xmlns:xlink="http://www.w3.org/1999/xlink">
 <defs>
  <style type="text/css">
   <![CDATA[
    .fil0 {fill:#163E6C}
   ]]>
  </style>
 </defs>
 <g id="Слой_x0020_1">
  <metadata id="CorelCorpID_0Corel-Layer"/>
  <path class="fil0" d="M1024 2006c-10,-70 16,-91 84,-85l34 26c14,107 -59,128 -118,59zm-88 0c25,171 313,158 294,-44 -17,-184 -322,-160 -294,44zm838 -133c100,-38 140,105 61,144 -42,20 -92,3 -109,-37 -28,-68 9,-93 48,-107zm-156 111c42,215 410,177 362,-77 -41,-219 -411,-174 -362,77zm-330 380c27,-34 40,-37 72,-62 20,-16 51,-46 67,-55l-325 64c-18,3 -39,6 -56,11l-33 14c-2,-3 -5,4 -8,5l239 313c17,18 1,3 25,17l-25 -158c116,21 213,34 335,20 136,-15 200,-52 307,-79 -20,-10 35,-19 -84,-3 -156,22 -409,-7 -514,-87zm740 -1754c-23,-42 -223,-308 -265,-331l30 156c-205,-25 -307,-44 -518,17 -27,8 -50,15 -75,25l-60 34c128,-13 202,-31 336,-11 85,12 217,40 269,87 -23,24 -39,36 -65,57l-58 49c-1,-2 -3,6 -5,9 72,-10 142,-27 214,-43 45,-9 159,-25 197,-49zm-858 380l419 2c68,237 213,444 183,649 -114,11 -221,-34 -325,-63 -65,-217 -36,-295 -158,-289l21 227 36 34 -176 -51 0 -509zm417 1025c-7,-84 -14,-130 30,-193 108,-154 371,-133 403,123l54 9c5,36 1,82 40,100 78,8 441,-9 494,-37l-1 -43 -446 -2 -6 -688 -77 -1 -1 -339 -181 5 0 694 -30 -1c0,-272 -57,-308 -158,-592 -56,-155 -37,-154 -219,-154 -124,1 -250,-2 -374,2 -40,59 -37,42 -36,136l-2 530c-8,-8 -10,-8 -19,-21 -2,-3 -10,-18 -12,-22 -10,-21 -9,-22 -14,-42 -75,0 -230,-26 -250,80l3 457 113 0c8,-126 56,-220 188,-218 130,2 178,102 181,218l320 -1z"/>
 </g>
</svg>
