<?xml version="1.0" encoding="UTF-8"?>
<!DOCTYPE svg PUBLIC "-//W3C//DTD SVG 1.1//EN" "http://www.w3.org/Graphics/SVG/1.1/DTD/svg11.dtd">
<!-- Creator: CorelDRAW X8 -->
<svg xmlns="http://www.w3.org/2000/svg" xml:space="preserve" width="25mm" height="25mm" version="1.1" style="shape-rendering:geometricPrecision; text-rendering:geometricPrecision; image-rendering:optimizeQuality; fill-rule:evenodd; clip-rule:evenodd"
viewBox="0 0 2500 2500"
 xmlns:xlink="http://www.w3.org/1999/xlink">
 <defs>
  <style type="text/css">
   <![CDATA[
    .fil0 {fill:#153E6C}
   ]]>
  </style>
 </defs>
 <g id="Слой_x0020_1">
  <metadata id="CorelCorpID_0Corel-Layer"/>
  <path class="fil0" d="M1077 519c402,-2 333,-39 395,127 65,176 112,239 110,417 -88,17 -192,-34 -277,-49 -9,-50 -25,-101 -38,-153 -17,-68 -9,-99 -88,-90 -6,61 -5,182 45,217l-147 -40 0 -429zm756 -42l-145 1c-20,124 20,515 -12,588 -28,-15 -18,-1 -18,-54 0,-161 -60,-242 -126,-427 -42,-120 -24,-144 -169,-143 -184,0 -353,-33 -365,55l0 497c-78,-55 44,-66 -194,-64 -24,27 -41,36 -54,70l0 377 100 3c-7,-248 314,-241 304,-4l272 3c-52,-276 294,-320 352,-113 18,65 -10,56 55,58l4 -351c58,49 260,10 341,5 77,-5 98,17 105,-50l-375 0 -2 -580 -71 2 -2 127zm-1386 654c-15,267 -17,327 69,537 49,119 50,109 122,180 23,22 49,50 71,74 83,90 72,21 74,215l386 0c26,-330 -7,-402 -204,-538 -57,-38 -122,-75 -166,-113 -52,-45 -89,-105 -184,-93 -61,56 -30,102 -4,176 -36,-24 -67,-60 -72,-113 -6,-73 36,-82 82,-110 7,-120 -40,-354 -174,-215zm1539 215c47,28 83,30 82,101 0,54 -30,92 -67,116 10,-40 52,-141 -11,-170 -55,-6 -76,0 -107,26 -31,26 -50,44 -78,68 -263,225 -392,112 -370,647l389 2 2 -142c65,-95 178,-154 219,-223 126,-213 133,-414 111,-648l-24 -18c-140,-34 -156,120 -146,241zm-443 12c-28,-130 98,-126 121,-65 30,78 -57,124 -121,65zm9 -183c-191,63 -97,366 108,290 177,-66 93,-357 -108,-290zm-601 194c-3,-61 14,-77 77,-65l21 20c13,66 -9,85 -75,74l-23 -29zm15 -135c-177,65 -65,293 90,229 135,-56 59,-283 -90,-229z"/>
 </g>
</svg>
