<?xml version="1.0" encoding="UTF-8"?>
<!DOCTYPE svg PUBLIC "-//W3C//DTD SVG 1.1//EN" "http://www.w3.org/Graphics/SVG/1.1/DTD/svg11.dtd">
<!-- Creator: CorelDRAW X8 -->
<svg xmlns="http://www.w3.org/2000/svg" xml:space="preserve" width="25mm" height="25mm" version="1.1" style="shape-rendering:geometricPrecision; text-rendering:geometricPrecision; image-rendering:optimizeQuality; fill-rule:evenodd; clip-rule:evenodd"
viewBox="0 0 2500 2500"
 xmlns:xlink="http://www.w3.org/1999/xlink">
 <defs>
  <style type="text/css">
   <![CDATA[
    .fil0 {fill:#153E6C}
   ]]>
  </style>
 </defs>
 <g id="Слой_x0020_1">
  <metadata id="CorelCorpID_0Corel-Layer"/>
  <path class="fil0" d="M1254 878c239,-37 433,141 466,338 41,246 -136,445 -337,479 -246,40 -449,-137 -479,-344 -37,-254 142,-440 350,-473zm-636 -339c-18,128 -8,437 -3,577 9,316 146,613 352,820 54,55 246,218 351,241 243,-106 465,-337 579,-583 63,-137 107,-296 113,-467 6,-134 15,-469 -3,-588l-565 -110c-16,45 -92,228 -126,264l-2 -286 -696 132zm677 947l-190 -169c15,-34 30,-50 58,-65 44,40 72,75 121,106 55,-43 128,-182 190,-245 39,12 43,21 67,48l-239 320c-1,1 -5,3 -7,5zm-35 -521c-166,29 -305,181 -267,385 76,416 724,302 640,-126 -30,-154 -177,-293 -373,-259z"/>
 </g>
</svg>
