<?xml version="1.0" encoding="UTF-8"?>
<!DOCTYPE svg PUBLIC "-//W3C//DTD SVG 1.1//EN" "http://www.w3.org/Graphics/SVG/1.1/DTD/svg11.dtd">
<!-- Creator: CorelDRAW X8 -->
<svg xmlns="http://www.w3.org/2000/svg" xml:space="preserve" width="30mm" height="30mm" version="1.1" style="shape-rendering:geometricPrecision; text-rendering:geometricPrecision; image-rendering:optimizeQuality; fill-rule:evenodd; clip-rule:evenodd"
viewBox="0 0 3000 3000"
 xmlns:xlink="http://www.w3.org/1999/xlink">
 <defs>
  <style type="text/css">
   <![CDATA[
    .fil0 {fill:#153E6C}
   ]]>
  </style>
 </defs>
 <g id="Слой_x0020_1">
  <metadata id="CorelCorpID_0Corel-Layer"/>
  <path class="fil0" d="M2507 1294c-107,-63 -154,-141 -201,-175 -79,69 -71,38 -185,58 25,72 90,74 121,225 57,272 -232,595 -375,651 -18,-22 -58,-51 -81,-72 -147,-125 -299,-333 -280,-543 7,-73 63,-197 100,-216 -76,-4 -107,17 -124,76l-82 -5c-1,6 -6,24 -7,26 -9,17 -10,14 -15,20 -38,-23 -42,-17 -89,-10l5 -58c-74,7 -38,35 -128,132 -45,-16 -65,-53 -112,-78 -9,11 -7,5 -20,27l-47 87c-48,74 -201,251 -279,276 -146,-104 -289,-260 -356,-477 -25,31 -20,56 -45,90 -20,28 -45,45 -62,83 -54,116 54,236 -27,283 -56,33 -214,-86 -155,99 25,79 64,134 78,190 26,100 3,70 42,97 56,-30 24,-61 39,-114 11,-40 49,-12 102,-18l1 -141c57,-31 112,-50 193,-41 53,50 27,96 61,148 27,41 73,91 132,97 57,-134 16,-142 198,-92 94,26 72,24 89,115 37,13 78,13 92,49 15,36 9,95 33,125 31,40 68,6 106,51 35,41 24,50 71,82 66,1 96,-36 144,-31 51,6 62,42 142,29 6,-43 -8,-113 45,-82 36,20 47,52 83,77l77 -26c109,44 108,88 202,-12l116 -1c45,-104 -56,-155 56,-214 131,-69 108,50 162,96 3,2 95,56 147,54 22,-37 20,-57 56,-74 65,79 -15,137 -20,209 0,1 122,198 148,-212 7,-107 -54,-309 -150,-310 -24,35 -11,38 -46,59l-42 -16c-29,-300 159,-313 187,-370 12,-64 -12,-107 -16,-174l62 11 5 -70c26,21 23,17 29,53 4,23 6,44 9,68 5,44 4,108 23,146 19,38 130,135 192,150 -5,-73 -20,-119 -46,-185 -61,-153 -198,-142 -101,-279 36,-52 13,-104 -13,-164 -60,65 -158,186 -244,221zm-664 49c186,-46 233,232 66,269 -177,39 -240,-227 -66,-269zm38 598c387,-267 353,-757 -11,-749 -185,4 -314,171 -268,369 34,145 191,340 279,380zm595 -1353c175,-54 233,216 80,263 -176,55 -270,-204 -80,-263zm31 597c90,-37 247,-239 280,-383 45,-201 -87,-364 -269,-368 -249,-5 -409,273 -179,581 35,46 124,143 168,170zm-1842 -173c86,-36 157,16 179,79 26,75 -17,153 -74,176 -169,68 -286,-182 -105,-255zm39 594c90,-31 252,-241 284,-378 116,-488 -653,-495 -551,-11 43,204 207,306 267,389z"/>
 </g>
</svg>
