<?xml version="1.0" encoding="UTF-8"?>
<!DOCTYPE svg PUBLIC "-//W3C//DTD SVG 1.1//EN" "http://www.w3.org/Graphics/SVG/1.1/DTD/svg11.dtd">
<!-- Creator: CorelDRAW X8 -->
<svg xmlns="http://www.w3.org/2000/svg" xml:space="preserve" width="25mm" height="25mm" version="1.1" style="shape-rendering:geometricPrecision; text-rendering:geometricPrecision; image-rendering:optimizeQuality; fill-rule:evenodd; clip-rule:evenodd"
viewBox="0 0 2500 2500"
 xmlns:xlink="http://www.w3.org/1999/xlink">
 <defs>
  <style type="text/css">
   <![CDATA[
    .fil0 {fill:#153E6C}
   ]]>
  </style>
 </defs>
 <g id="Слой_x0020_1">
  <metadata id="CorelCorpID_0Corel-Layer"/>
  <path class="fil0" d="M1242 862c231,-66 331,291 95,358 -230,66 -347,-285 -95,-358zm-29 -150c-161,38 -298,193 -257,400 84,418 758,312 660,-147 -34,-158 -204,-299 -403,-253zm-485 730c-10,-115 -28,-183 -106,-242 -59,-44 -199,-85 -274,-24 13,13 -10,16 51,33 23,7 38,9 57,23 15,11 58,73 66,89 -16,47 -57,126 -90,157 -28,10 -101,3 -129,-16 -11,-7 -30,-27 -42,-37 -8,-8 -11,-14 -24,-19 -37,-15 -7,-1 -19,2 -21,75 82,185 139,213 123,59 182,14 290,-26l507 296c17,120 34,194 107,245 62,43 201,85 277,23 -38,-73 -55,39 -179,-147l91 -157c174,-12 151,77 220,76 4,-96 -79,-186 -145,-216 -138,-64 -175,-10 -288,22l-509 -295zm494 -821c250,-41 452,145 484,354 40,259 -148,456 -360,487 -551,78 -674,-750 -124,-841zm-215 -205l0 72 -60 27 -66 -29c-61,45 -111,80 -148,153l29 56 -32 63 -75 4c-21,62 -50,132 -50,209l59 36 -29 89c47,55 53,21 117,118 41,63 51,102 60,185 638,362 325,210 581,202 78,-3 106,14 168,30 21,-52 19,-44 68,-66l64 32c60,-45 97,-88 147,-140 -6,-37 -12,-42 -29,-69l33 -66 73 -2c24,-66 50,-135 51,-215l-59 -27c0,-111 0,-53 60,-114 -6,-75 -31,-140 -51,-201l-74 -4 -35 -63 32 -56c-33,-73 -91,-101 -145,-155l-66 33 -64 -39c0,-7 1,-26 1,-30 -3,-27 2,6 -3,-21 -10,-48 -151,-67 -204,-69 -47,55 -7,59 -115,58l-28 -57c-65,-2 -163,26 -210,56z"/>
 </g>
</svg>
