<?xml version="1.0" encoding="UTF-8"?>
<!DOCTYPE svg PUBLIC "-//W3C//DTD SVG 1.1//EN" "http://www.w3.org/Graphics/SVG/1.1/DTD/svg11.dtd">
<!-- Creator: CorelDRAW X8 -->
<svg xmlns="http://www.w3.org/2000/svg" xml:space="preserve" width="30mm" height="30mm" version="1.1" style="shape-rendering:geometricPrecision; text-rendering:geometricPrecision; image-rendering:optimizeQuality; fill-rule:evenodd; clip-rule:evenodd"
viewBox="0 0 3000 3000"
 xmlns:xlink="http://www.w3.org/1999/xlink">
 <defs>
  <style type="text/css">
   <![CDATA[
    .fil0 {fill:#173F6C}
   ]]>
  </style>
 </defs>
 <g id="Слой_x0020_1">
  <metadata id="CorelCorpID_0Corel-Layer"/>
  <path class="fil0" d="M358 1243l398 3c52,-3 43,-28 45,-85l-434 0 -9 82zm1224 129c-16,-47 -17,-106 -23,-155 -4,-27 -8,-51 -11,-78 -2,-14 -4,-31 -2,-45 5,-48 0,-8 11,-26 34,-19 59,-11 107,0 82,19 170,53 235,101 31,23 222,172 244,206 -116,3 -469,8 -561,-3zm-1010 -252l271 0 -16 163c-50,4 -86,-3 -120,11l-19 115 83 4c2,32 -3,52 -7,83 -13,107 37,81 -275,82l-61 307 288 1c15,-136 101,-242 240,-244 150,-3 230,103 251,241l950 3c33,-259 280,-306 416,-174 65,62 48,83 79,165 0,0 19,27 75,-7 19,-12 37,-30 48,-52 16,-32 28,-137 24,-177 -21,-217 -357,-168 -526,-300 -315,-244 -447,-378 -847,-378 -266,1 -561,-12 -823,2l-31 155zm299 779c-13,-123 171,-141 179,-23 10,125 -167,130 -179,23zm50 -184c-221,53 -152,398 83,343 215,-51 153,-400 -83,-343zm1444 92c120,-59 180,125 71,163 -83,28 -142,-48 -117,-117 13,-33 20,-33 46,-46zm6 -95c-226,46 -171,394 72,346 201,-39 163,-393 -72,-346zm-2130 -174l476 1 12 -86 -477 0 -11 85zm-69 -154l480 3 9 -84 -472 -3 -17 84z"/>
 </g>
</svg>
