<?xml version="1.0" encoding="UTF-8"?>
<!DOCTYPE svg PUBLIC "-//W3C//DTD SVG 1.1//EN" "http://www.w3.org/Graphics/SVG/1.1/DTD/svg11.dtd">
<!-- Creator: CorelDRAW X8 -->
<svg xmlns="http://www.w3.org/2000/svg" xml:space="preserve" width="25mm" height="25mm" version="1.1" style="shape-rendering:geometricPrecision; text-rendering:geometricPrecision; image-rendering:optimizeQuality; fill-rule:evenodd; clip-rule:evenodd"
viewBox="0 0 2500 2500"
 xmlns:xlink="http://www.w3.org/1999/xlink">
 <defs>
  <style type="text/css">
   <![CDATA[
    .fil0 {fill:#163E6C}
   ]]>
  </style>
 </defs>
 <g id="Слой_x0020_1">
  <metadata id="CorelCorpID_0Corel-Layer"/>
  <path class="fil0" d="M726 719l1162 0 -6 463c-65,52 -128,89 -191,134 -33,23 -65,46 -98,69 -31,21 -61,35 -91,65 13,23 3,11 24,32l373 356 -443 -352c-35,-29 -116,-100 -155,-115 -174,125 -399,334 -587,466l396 -387 -384 -268 0 -463zm-215 1291l1592 -3 0 -959c-13,-35 -92,-86 -122,-99l-4 -320c-107,-5 -332,14 -419,-3 -53,-9 -190,-138 -258,-168 -34,33 -214,165 -255,170 -118,13 -282,-7 -412,1l-2 319c-28,14 -109,68 -122,100l2 962zm521 -1016c22,38 101,112 131,135l-26 193 174 -87 169 87 -30 -195c45,-41 106,-90 131,-136l-185 -27 -90 -170c-118,179 8,169 -274,200z"/>
 </g>
</svg>
