<?xml version="1.0" encoding="UTF-8"?>
<!DOCTYPE svg PUBLIC "-//W3C//DTD SVG 1.1//EN" "http://www.w3.org/Graphics/SVG/1.1/DTD/svg11.dtd">
<!-- Creator: CorelDRAW X8 -->
<svg xmlns="http://www.w3.org/2000/svg" xml:space="preserve" width="25mm" height="25mm" version="1.1" style="shape-rendering:geometricPrecision; text-rendering:geometricPrecision; image-rendering:optimizeQuality; fill-rule:evenodd; clip-rule:evenodd"
viewBox="0 0 2500 2500"
 xmlns:xlink="http://www.w3.org/1999/xlink">
 <defs>
  <style type="text/css">
   <![CDATA[
    .fil0 {fill:#163E6C}
   ]]>
  </style>
 </defs>
 <g id="Слой_x0020_1">
  <metadata id="CorelCorpID_0Corel-Layer"/>
  <path class="fil0" d="M1463 1914c22,-111 69,-272 106,-385 45,-137 168,-151 337,-150 -27,245 -233,484 -443,535zm-881 -546c50,0 210,17 252,31 78,27 104,88 129,175 15,54 45,186 67,234 16,35 129,98 164,139 -324,-18 -595,-290 -612,-579zm498 -25c-37,-146 318,-158 356,-41 48,146 -326,158 -356,41zm-499 -137c5,-82 41,-201 87,-255 196,1 260,-75 270,-264 235,-99 437,-105 653,23 120,71 318,280 315,496 -259,-78 -342,-126 -657,-126 -129,-1 -241,8 -363,34 -116,23 -215,72 -305,92zm318 -603c-39,-40 -57,-67 -121,-85 -58,-16 -120,-8 -168,19 -112,62 -129,149 -93,304 -1,12 -376,607 190,1100 457,397 1262,156 1375,-511 69,-412 -158,-800 -546,-945 -236,-88 -423,-54 -644,24l7 94z"/>
 </g>
</svg>
