<?xml version="1.0" encoding="UTF-8"?>
<!DOCTYPE svg PUBLIC "-//W3C//DTD SVG 1.1//EN" "http://www.w3.org/Graphics/SVG/1.1/DTD/svg11.dtd">
<!-- Creator: CorelDRAW X8 -->
<svg xmlns="http://www.w3.org/2000/svg" xml:space="preserve" width="25mm" height="25mm" version="1.1" style="shape-rendering:geometricPrecision; text-rendering:geometricPrecision; image-rendering:optimizeQuality; fill-rule:evenodd; clip-rule:evenodd"
viewBox="0 0 2500 2500"
 xmlns:xlink="http://www.w3.org/1999/xlink">
 <defs>
  <style type="text/css">
   <![CDATA[
    .fil0 {fill:#163E6C}
   ]]>
  </style>
 </defs>
 <g id="Слой_x0020_1">
  <metadata id="CorelCorpID_0Corel-Layer"/>
  <path class="fil0" d="M1056 1335l516 0c20,47 48,173 56,235l-629 -1 57 -234zm99 -435c18,-65 10,-41 311,-41l50 234 -400 0 39 -193zm34 908l-525 1 1 182 1302 0 -1 -181c-202,-4 -180,20 -198,-59l-144 -616c-156,-653 -49,-567 -453,-562 -54,58 -40,29 -62,125l-174 741c-22,97 -57,211 -68,305l322 64z"/>
 </g>
</svg>
