<?xml version="1.0" encoding="UTF-8"?>
<!DOCTYPE svg PUBLIC "-//W3C//DTD SVG 1.1//EN" "http://www.w3.org/Graphics/SVG/1.1/DTD/svg11.dtd">
<!-- Creator: CorelDRAW X8 -->
<svg xmlns="http://www.w3.org/2000/svg" xml:space="preserve" width="25mm" height="25mm" version="1.1" style="shape-rendering:geometricPrecision; text-rendering:geometricPrecision; image-rendering:optimizeQuality; fill-rule:evenodd; clip-rule:evenodd"
viewBox="0 0 2500 2500"
 xmlns:xlink="http://www.w3.org/1999/xlink">
 <defs>
  <style type="text/css">
   <![CDATA[
    .fil0 {fill:#163E6C}
   ]]>
  </style>
 </defs>
 <g id="Слой_x0020_1">
  <metadata id="CorelCorpID_0Corel-Layer"/>
  <path class="fil0" d="M1919 1390c-60,335 -373,624 -783,559 -338,-54 -629,-380 -564,-785 55,-335 383,-634 792,-562 329,58 628,383 555,788zm259 34c92,-567 -320,-1012 -786,-1082 -561,-84 -1001,312 -1077,777 -93,569 312,1015 786,1088 563,87 1002,-317 1077,-783zm-838 41l77 -4 2 75 -74 6 -5 -77zm-268 37c17,-47 37,-56 82,-31l8 53c-45,35 -71,36 -90,-22zm467 -268c36,65 -6,103 -70,69 -5,-64 6,-76 70,-69zm-424 56c-14,-176 241,-200 261,-34 23,182 -249,195 -261,34zm-169 12c-3,-32 1,-45 12,-65 62,-14 72,-2 74,55 -35,35 -48,32 -86,10zm404 -217c-25,-46 -17,-67 31,-82 73,26 58,105 -31,82zm-262 3c-29,-60 -8,-110 71,-69 7,66 -4,77 -71,69zm98 -202c-532,91 -381,873 135,777 503,-93 371,-863 -135,-777zm-42 -82c295,-70 523,141 575,370 66,294 -148,526 -373,574 -614,130 -829,-797 -202,-944zm-28 -108c-180,44 -276,125 -358,239 -86,118 -134,300 -91,477 66,277 346,525 711,444 279,-63 535,-348 449,-713 -65,-276 -346,-538 -711,-447z"/>
 </g>
</svg>
