<?xml version="1.0" encoding="UTF-8"?>
<!DOCTYPE svg PUBLIC "-//W3C//DTD SVG 1.1//EN" "http://www.w3.org/Graphics/SVG/1.1/DTD/svg11.dtd">
<!-- Creator: CorelDRAW X8 -->
<svg xmlns="http://www.w3.org/2000/svg" xml:space="preserve" width="25mm" height="25mm" version="1.1" style="shape-rendering:geometricPrecision; text-rendering:geometricPrecision; image-rendering:optimizeQuality; fill-rule:evenodd; clip-rule:evenodd"
viewBox="0 0 2500 2500"
 xmlns:xlink="http://www.w3.org/1999/xlink">
 <defs>
  <style type="text/css">
   <![CDATA[
    .fil0 {fill:#163E6C}
   ]]>
  </style>
 </defs>
 <g id="Слой_x0020_1">
  <metadata id="CorelCorpID_0Corel-Layer"/>
  <path class="fil0" d="M656 725l373 4 0 71 154 4 -1 383 -116 5c-20,147 -36,289 -55,438 -26,205 -53,276 170,293l1 85 -611 -59 -2 -123c-64,-3 -120,-8 -182,4l3 414 178 0 2 -109c175,11 582,63 706,63 221,0 477,-59 704,-62l6 109 177 -3 0 -417 -182 2 -1 124 -616 56 7 -86c219,-2 192,-101 168,-292 -18,-145 -34,-293 -55,-439l-117 -2 2 -386 153 -3 0 -71 372 -3 0 117 183 0 -5 -417 -176 1 -2 120 -372 -4 0 -71 -493 0 -4 148 -43 -74 -325 0 -4 -120 -178 1 -1 416 182 -3 0 -114z"/>
 </g>
</svg>
