<?xml version="1.0" encoding="UTF-8"?>
<!DOCTYPE svg PUBLIC "-//W3C//DTD SVG 1.1//EN" "http://www.w3.org/Graphics/SVG/1.1/DTD/svg11.dtd">
<!-- Creator: CorelDRAW X8 -->
<svg xmlns="http://www.w3.org/2000/svg" xml:space="preserve" width="25mm" height="25mm" version="1.1" style="shape-rendering:geometricPrecision; text-rendering:geometricPrecision; image-rendering:optimizeQuality; fill-rule:evenodd; clip-rule:evenodd"
viewBox="0 0 2500 2500"
 xmlns:xlink="http://www.w3.org/1999/xlink">
 <defs>
  <style type="text/css">
   <![CDATA[
    .fil0 {fill:#153E6C}
   ]]>
  </style>
 </defs>
 <g id="Слой_x0020_1">
  <metadata id="CorelCorpID_0Corel-Layer"/>
  <path class="fil0" d="M2148 1904c-1,2 -4,2 -6,5 -1,3 -5,3 -6,4 -13,3 -16,3 -29,4 -20,1 -48,-1 -69,-1l-396 -4 -6 -238c63,-16 472,-17 519,3 4,39 2,78 2,117 1,32 9,85 -9,110zm-1165 -226l511 -4 2 228 -49 11 -414 -2 -51 -5 1 -228zm-658 38l3 -42 503 0 4 236 -48 1 -462 0 0 -195zm1316 -220l513 -6 -1 93 -511 0 -1 -87zm-659 -6l513 0 -1 93 -509 0 -3 -93zm-658 0l511 0 -1 92 -508 1 -2 -93zm1050 -210l1 -48 386 0 1 48 0 62 -387 0 -1 -62zm-658 0l1 -48 386 0 1 109 -49 1 -339 0 0 -62zm-158 -328c60,-9 250,-86 325,-112 89,-31 250,-98 332,-115 36,-8 608,186 660,220 -129,-20 -583,-170 -671,-152 -163,34 -513,157 -646,159zm-530 38c34,30 112,47 132,89l0 902 2154 0 3 -902c25,-47 96,-57 133,-89 -24,-17 -1175,-426 -1205,-427 -28,-2 -1170,397 -1217,427z"/>
 </g>
</svg>
