<?xml version="1.0" encoding="UTF-8"?>
<!DOCTYPE svg PUBLIC "-//W3C//DTD SVG 1.1//EN" "http://www.w3.org/Graphics/SVG/1.1/DTD/svg11.dtd">
<!-- Creator: CorelDRAW X8 -->
<svg xmlns="http://www.w3.org/2000/svg" xml:space="preserve" width="25mm" height="25mm" version="1.1" style="shape-rendering:geometricPrecision; text-rendering:geometricPrecision; image-rendering:optimizeQuality; fill-rule:evenodd; clip-rule:evenodd"
viewBox="0 0 2500 2500"
 xmlns:xlink="http://www.w3.org/1999/xlink">
 <defs>
  <style type="text/css">
   <![CDATA[
    .fil0 {fill:#163E6C}
   ]]>
  </style>
 </defs>
 <g id="Слой_x0020_1">
  <metadata id="CorelCorpID_0Corel-Layer"/>
  <path class="fil0" d="M1358 1101l-1 84 -273 -4c-6,-90 35,-101 77,-147 35,-38 108,-75 78,-142 -55,-23 -63,5 -106,25l-47 -55c57,-80 214,-92 255,-6 27,56 -3,113 -31,147 -49,59 -63,47 -89,96l137 2zm-502 -27c71,474 823,367 733,-131 -84,-461 -808,-372 -733,131zm286 -513c270,-61 484,143 530,355 59,273 -135,497 -352,544 -580,124 -806,-757 -178,-899zm-642 443c27,66 81,115 119,173 40,61 10,180 20,259 41,16 201,64 222,80 18,15 109,146 122,172l-222 -104 -184 461 266 -87c24,52 95,216 123,244 36,-96 82,-200 120,-294 26,-64 88,-247 127,-276 36,24 218,496 247,569 28,-28 106,-200 124,-249l268 90 -220 -550c53,-11 132,-30 175,-60 28,-309 -68,-115 135,-414 -15,-56 -80,-121 -111,-171 -40,-61 -17,-177 -23,-257 -53,-36 -196,-58 -227,-85l-133 -179c-66,7 -177,62 -224,63 -36,0 -169,-54 -223,-64 -49,47 -92,136 -137,177 -27,25 -176,62 -227,85 -12,214 58,178 -137,417z"/>
 </g>
</svg>
