<?xml version="1.0" encoding="UTF-8"?>
<!DOCTYPE svg PUBLIC "-//W3C//DTD SVG 1.1//EN" "http://www.w3.org/Graphics/SVG/1.1/DTD/svg11.dtd">
<!-- Creator: CorelDRAW X8 -->
<svg xmlns="http://www.w3.org/2000/svg" xml:space="preserve" width="30mm" height="30mm" version="1.1" style="shape-rendering:geometricPrecision; text-rendering:geometricPrecision; image-rendering:optimizeQuality; fill-rule:evenodd; clip-rule:evenodd"
viewBox="0 0 3000 3000"
 xmlns:xlink="http://www.w3.org/1999/xlink">
 <defs>
  <style type="text/css">
   <![CDATA[
    .fil0 {fill:#163E6C}
   ]]>
  </style>
 </defs>
 <g id="Слой_x0020_1">
  <metadata id="CorelCorpID_0Corel-Layer"/>
  <path class="fil0" d="M1288 1230c493,0 400,-43 472,148 72,190 148,328 128,507 -136,4 -205,-41 -326,-63 -18,-82 -46,-243 -88,-293l-65 3c-2,48 6,95 10,142 4,57 -2,58 22,91 3,4 10,16 11,14 1,-2 4,5 5,12l-171 -49 2 -512zm417 1028c-11,-82 -6,-151 37,-204 123,-152 373,-105 395,134l52 3c15,70 -9,54 42,111l498 -37 -1 -48 -450 -4 0 -685 -81 -2 -2 -342 -180 2c-6,113 -1,240 -1,354 0,60 0,120 0,179 0,30 0,60 0,90 1,105 -4,63 -14,77 -11,-13 -15,-2 -17,-54 0,-22 2,-47 1,-69 0,-98 -117,-358 -156,-465 -41,-115 -26,-95 -82,-161l-506 2 -45 44 -1 626c-82,-95 27,-89 -231,-86l-65 66 1 468 118 -1c-8,-288 372,-293 365,2l323 0zm-597 -1097c14,-32 78,-96 110,-111l384 0c-15,-82 -34,-121 -116,-121l-413 0c-47,0 -81,28 -86,64l0 518c-244,0 -192,-21 -295,60l-1 478 118 0c0,-59 -8,-237 1,-282 7,-35 102,-125 140,-135l158 0 0 -471zm-114 -329l418 -2c-13,-75 -32,-127 -115,-127l-414 0c-64,0 -59,9 -88,41l-2 541c-251,0 -201,-22 -294,66l-1 471 106 -1 2 -291c144,-133 56,-114 294,-119l5 -485 89 -94zm883 1288c104,-60 165,95 81,138 -96,49 -174,-84 -81,-138zm-142 102c32,216 400,188 365,-66 -13,-94 -110,-172 -223,-149 -92,18 -159,106 -142,215zm-573 -54c112,-26 128,81 69,112 -67,34 -131,-35 -69,-112zm180 99c60,-193 -226,-264 -283,-93 -68,200 227,273 283,93z"/>
 </g>
</svg>
