<?xml version="1.0" encoding="UTF-8"?>
<!DOCTYPE svg PUBLIC "-//W3C//DTD SVG 1.1//EN" "http://www.w3.org/Graphics/SVG/1.1/DTD/svg11.dtd">
<!-- Creator: CorelDRAW X8 -->
<svg xmlns="http://www.w3.org/2000/svg" xml:space="preserve" width="200mm" height="15mm" version="1.1" style="shape-rendering:geometricPrecision; text-rendering:geometricPrecision; image-rendering:optimizeQuality; fill-rule:evenodd; clip-rule:evenodd"
viewBox="0 0 20000 1500"
 xmlns:xlink="http://www.w3.org/1999/xlink">
 <defs>
  <style type="text/css">
   <![CDATA[
    .fil0 {fill:#163D6B}
   ]]>
  </style>
 </defs>
 <g id="Слой_x0020_1">
  <metadata id="CorelCorpID_0Corel-Layer"/>
  <path class="fil0" d="M11264 843l0 -4 5 4 -5 0zm340 -843l93 0 4674 0c-12,49 -52,138 -73,191l-127 327c-7,17 -11,30 -18,47 -37,92 -114,283 -145,373l-55 140c-5,14 -11,30 -18,47l-127 326c-5,14 -15,32 -16,49l-599 0c29,-59 47,-138 77,-195 -20,-29 -88,-82 -118,-112l-193 -179 -354 424c-16,18 -36,40 -47,62l-688 0 399 -484c29,-39 64,-74 93,-114l185 -224c8,-8 6,-6 13,-16 6,-8 9,-9 15,-17 38,-48 81,-93 116,-142 11,-15 15,-15 25,-33l-368 0 -77 -121c-13,-20 -71,-101 -77,-122 -17,13 -28,59 -35,78 -11,28 -20,52 -31,79 -144,357 -274,720 -418,1077 -6,13 -13,25 -14,39l-599 0c10,-17 20,-45 27,-66 8,-24 18,-44 25,-64l249 -643c29,-75 62,-149 88,-224 4,-10 9,-22 12,-33l-190 0c-9,13 -17,22 -28,34 -6,8 -4,8 -12,16l-27 33c-7,9 -6,7 -13,16 -44,46 -90,109 -132,160l-186 226c-37,50 -81,96 -119,144 -6,7 -8,9 -13,16l-240 291c-9,11 -17,19 -26,30 -17,20 -37,40 -50,64l-688 0c6,-8 8,-9 15,-18l39 -46c6,-9 6,-9 14,-18l38 -47c8,-8 7,-10 15,-18l159 -192c8,-9 6,-9 13,-17 9,-11 16,-19 26,-30 7,-9 6,-10 14,-18 8,-9 6,-7 13,-16 5,-8 8,-8 13,-15l172 -209c8,-7 7,-9 14,-18 7,-7 7,-9 13,-16l133 -159c6,-9 8,-10 14,-18l53 -64c28,-30 49,-65 77,-93 9,-10 7,-4 11,-18l-368 0 -115 -181c-8,-11 -13,-18 -20,-29l-14 -22c-5,-9 -1,-2 -5,-7 -4,16 -9,26 -15,42l-46 120c-21,51 -40,104 -62,157l-61 158c-21,54 -40,103 -61,157l-216 554c-5,15 -9,27 -15,42 -5,13 -12,25 -14,39l-598 0 192 -492c12,-29 20,-53 32,-82 6,-15 9,-26 15,-41 7,-15 12,-26 15,-42 -13,4 -9,4 -19,13l-87 75c-11,7 -9,7 -18,15l-33 28c-8,7 -9,6 -18,14 -8,8 -10,7 -18,14l-70 60c-46,34 -92,81 -138,117l-256 217c-9,6 -10,10 -18,16l-50 42c-41,35 -44,46 -79,46l-571 0c7,-31 25,-67 37,-97l54 -140c7,-17 13,-30 19,-46 5,-16 11,-30 18,-47 55,-140 106,-281 163,-420l274 -703c6,-17 10,-32 17,-47l595 0c-11,46 -249,627 -259,669 30,-20 52,-48 81,-69 11,-8 15,-13 27,-22 17,-13 34,-32 52,-45l236 -202c7,-7 7,-5 14,-10l170 -146c24,-23 54,-42 79,-67 24,-24 55,-42 79,-66 26,-27 42,-38 59,-42zm3856 819l-340 0c4,-15 24,-32 34,-44l89 -109c9,-10 10,-14 18,-22l26 -31c5,-6 2,-5 8,-12 14,-16 25,-27 37,-44l72 -87 190 0 -67 173c-14,36 -61,149 -67,176zm-10872 211l-477 0c21,-45 111,-288 136,-351l82 -209 474 0 -133 349c-16,45 -75,182 -82,211zm-2431 -653l-3 9 3 -9zm-2157 1123l688 0c9,-18 14,-18 24,-32l64 -79c28,-30 52,-66 81,-97 43,-45 77,-97 119,-144 8,-8 6,-8 12,-16l41 -49c7,-8 6,-6 12,-15 7,-8 10,-10 16,-17l277 -339c61,-66 114,-140 172,-208 10,-12 19,-21 27,-34l191 0c-3,11 -8,23 -12,33 -26,75 -59,149 -88,224 -35,91 -97,242 -124,321l-177 452 603 0c17,-32 77,-94 103,-128l25 -31c10,-11 19,-21 28,-33 7,-9 5,-8 13,-16l79 -95c7,-8 7,-10 14,-18 10,-12 16,-19 26,-31l53 -65c8,-8 6,-6 13,-15l280 -339c7,-8 5,-9 12,-17l172 -208c11,-12 19,-21 28,-34l190 0 -224 578c-35,104 -86,218 -125,322 -7,20 -17,40 -25,64 -7,21 -18,49 -27,66l599 0c2,-22 20,-57 28,-78 38,-96 120,-297 149,-382 35,-104 83,-202 119,-306 37,-104 82,-205 120,-309 10,-27 21,-50 30,-76 8,-25 21,-54 27,-81 12,8 7,7 14,23l88 179 283 0c-3,3 -2,3 -7,6l-260 152c-23,13 -42,26 -66,40 -18,9 -37,17 -44,37 -2,7 -5,14 -8,21l-89 230c-22,55 -200,501 -210,544l1667 0c21,-44 36,-94 54,-140l55 -140c24,-62 53,-124 72,-187 28,-91 85,-210 120,-306l226 -585c5,-14 11,-30 18,-46 12,-32 22,-66 38,-96l-3132 0c-7,24 -143,185 -164,213l-92 118c-12,15 -24,36 -39,46l96 -280c9,-25 27,-71 29,-97l-2080 0 207 353c11,19 23,37 35,58 8,15 30,45 33,59l369 0c-4,14 -2,8 -11,18l-237 286c-7,8 -6,9 -14,18 -8,8 -7,8 -13,16 -5,6 -8,8 -13,14 -6,7 -6,9 -13,16l-186 227c-5,7 -8,7 -13,15l-179 218c-4,4 -5,4 -8,9l-144 175c-7,9 -9,10 -15,18zm6547 -657l0 -4 4 4 -4 0zm333 -843l67 0c169,0 337,0 506,0 -3,13 -12,34 -17,47l-89 236c-14,32 -23,63 -36,94 -56,138 -103,283 -159,420l-249 659c-5,14 -11,32 -16,44l-595 0 129 -329c16,-41 115,-283 126,-328 -14,4 -10,4 -20,13l-87 75c-10,7 -9,7 -18,15l-277 233c-6,5 -8,9 -14,14l-310 261c-41,35 -44,46 -79,46l-571 0c11,-50 86,-216 110,-283 5,-16 11,-30 18,-47l200 -517c46,-125 102,-246 146,-373 28,-79 61,-155 91,-233 6,-17 10,-32 18,-47l594 0c-6,28 -21,58 -32,85 -73,180 -140,362 -211,543 -4,11 -13,28 -16,41 10,-6 10,-8 18,-15 34,-30 72,-58 105,-90l68 -56c7,-6 10,-11 17,-16l174 -147c48,-37 103,-93 152,-131 7,-6 8,-5 16,-12l69 -60c9,-6 10,-8 18,-15l121 -102c21,-17 24,-23 33,-25zm1572 470l284 0c-3,3 -2,3 -7,6l-224 132c-12,7 -24,13 -36,20l-81 49c-20,11 -23,8 -29,28 -33,96 -146,379 -188,485 -21,53 -39,101 -60,154l-59 156 1667 0 170 -438c4,-10 9,-22 12,-32l-1072 0c5,-11 8,-23 13,-36l177 -454c8,-21 18,-51 28,-70l474 0c-4,15 -8,22 -12,33 -13,36 -92,233 -94,247l595 0 291 -750 -2075 0 212 441c5,11 9,19 14,29zm7510 1030l595 0 21 -56c3,-9 7,-20 11,-29l57 -146c7,-18 13,-36 21,-56 14,-33 7,-34 36,-45 12,-4 17,-7 28,-13 51,-25 137,-58 193,-86l249 -111c11,-4 18,-9 27,-13l57 -25 -112 290c-13,38 -109,271 -111,290l595 0 108 -281c54,-134 109,-287 163,-420 7,-16 14,-34 20,-49 6,-18 11,-30 18,-47 7,-17 11,-30 17,-48l37 -93c25,-63 47,-123 73,-186l147 -376 -599 0c-2,16 -52,141 -62,165l-65 166c-6,15 -10,27 -15,41l-113 293 -478 0c20,-42 109,-281 130,-333 5,-13 11,-28 16,-41l113 -291 -594 0 -329 842c-7,17 -11,30 -18,47l-200 513c-11,31 -28,65 -36,98zm4038 -1500l-1667 0 -135 351c-8,21 -15,39 -23,58 -6,16 -18,42 -20,61l793 0 -20 13c-7,3 -13,7 -20,12l-124 74c-9,5 -201,114 -208,124l-130 337 -210 0 -89 235c-16,38 -30,77 -46,116 -9,22 -42,103 -43,119l1032 0 157 -410c6,-19 19,-40 21,-60l-227 0c21,-45 111,-288 136,-351l83 -209 558 0 182 -470zm-13688 332c21,-1 159,-109 195,-136l223 -162c12,-10 19,-9 23,-26 -103,0 -198,-4 -303,-4 -4,15 -11,25 -17,40 -5,11 -11,27 -17,40 -8,17 -103,234 -104,248z"/>
 </g>
</svg>
