<?xml version="1.0" encoding="UTF-8"?>
<!DOCTYPE svg PUBLIC "-//W3C//DTD SVG 1.1//EN" "http://www.w3.org/Graphics/SVG/1.1/DTD/svg11.dtd">
<!-- Creator: CorelDRAW X8 -->
<svg xmlns="http://www.w3.org/2000/svg" xml:space="preserve" width="100mm" height="12.528mm" version="1.1" style="shape-rendering:geometricPrecision; text-rendering:geometricPrecision; image-rendering:optimizeQuality; fill-rule:evenodd; clip-rule:evenodd"
viewBox="0 0 10000 1253"
 xmlns:xlink="http://www.w3.org/1999/xlink">
 <defs>
  <style type="text/css">
   <![CDATA[
    .fil0 {fill:#163E6C}
   ]]>
  </style>
 </defs>
 <g id="Слой_x0020_1">
  <metadata id="CorelCorpID_0Corel-Layer"/>
  <path class="fil0" d="M2688 700c6,5 2,5 0,10 -3,4 -2,3 -4,9l-154 395c-9,24 -17,44 -27,68 -9,24 -18,50 -27,71l501 0c1,-22 94,-248 100,-265 88,-219 170,-442 258,-661 15,-37 43,-95 51,-135l9 12c36,58 90,131 120,189l308 0c-4,15 -30,39 -41,52 -62,70 -117,146 -178,216l-466 563c-7,8 -17,20 -23,29l576 0c13,-24 75,-95 95,-118l123 -149c8,-11 16,-19 25,-29 9,-11 15,-20 24,-30 135,-171 281,-332 415,-502 31,-41 27,-32 76,-32 37,0 73,0 109,0 -9,36 -28,71 -41,107 -13,35 -28,71 -42,107 -28,74 -57,142 -84,215l-83 214c-18,44 -65,178 -85,217l501 0c2,-21 294,-761 309,-798l91 -235c4,-11 7,-24 16,-31 3,12 24,38 31,50 10,17 23,34 33,52 12,16 21,32 33,49 6,10 10,15 16,25 5,9 10,17 17,28l308 0c-16,29 -65,78 -87,106 -14,19 -29,35 -44,53 -58,74 -120,143 -177,216l-134 162c-59,71 -164,193 -222,268l-44 55 576 0c18,-37 57,-71 80,-102l42 -51c44,-49 84,-102 128,-153l62 -76c7,-9 16,-20 22,-25 26,17 194,185 228,209 13,11 21,23 33,32 -2,11 -10,30 -15,41 -16,41 -31,86 -48,125l501 0c2,-26 111,-293 120,-313l121 -314c42,-104 79,-207 121,-312 18,-45 112,-270 121,-314l-3987 0c-3,0 -5,0 -5,0 -16,2 -35,23 -47,34 -14,13 -29,24 -44,38 -34,32 -74,61 -110,93l-66 55c-15,14 -28,25 -44,37 -73,63 -144,128 -220,187l-133 115c8,-32 41,-105 54,-141 8,-22 17,-44 26,-67 18,-45 129,-320 137,-351l-498 0c-21,44 -102,262 -122,311 -42,105 -81,210 -122,315l-213 545c-5,14 -9,25 -15,40 -5,14 -13,29 -16,42l481 0c31,-2 39,-18 63,-39l87 -73c107,-87 209,-181 317,-268l203 -173zm3513 -17l-284 0c2,-9 27,-38 35,-48l136 -163c8,-8 13,-15 19,-24 8,-9 13,-16 20,-24l20 -25c12,-12 46,-6 77,-6 29,0 59,0 88,0l-28 70c-13,40 -78,198 -83,220zm-6201 570l1394 0 153 -394 -897 0 159 -409c6,-18 16,-41 23,-57l397 0c-4,17 -14,39 -21,56 -8,19 -15,40 -23,59l-44 118 498 0 243 -626 -1737 0c4,19 37,76 48,98l118 243c9,19 15,34 24,52l237 0c-4,2 1,0 -6,3 -3,3 -3,2 -6,4l-267 157c-41,23 -30,16 -43,49 -17,42 -33,87 -50,129l-200 518zm6620 0l499 0 92 -239c10,-25 7,-29 30,-39l278 -124c48,-25 135,-58 186,-83l-187 485 498 0 181 -470c11,-27 20,-50 31,-77 11,-28 21,-55 31,-81l213 -546c5,-15 10,-24 15,-38 5,-14 10,-29 17,-41l-501 0c-1,12 -44,117 -53,137l-161 418 -400 0c5,-10 10,-24 13,-35l204 -520 -498 0c-10,20 -22,53 -31,77 -8,25 -20,52 -30,77 -114,283 -222,579 -336,861l-61 155c-8,26 -23,56 -30,83zm3380 -1253l-1394 0c-5,17 -12,31 -19,48 -6,20 -13,34 -19,50 -12,27 -110,274 -111,295l663 0 -296 174c-7,4 -11,7 -15,12l-79 200c-4,13 -9,24 -14,38 -6,15 -13,27 -16,42l-176 0c-2,23 -147,369 -149,394l863 0c7,-29 112,-289 132,-343 6,-15 16,-34 18,-51l-190 0 46 -117c18,-47 122,-323 137,-349l467 0 152 -393z"/>
 </g>
</svg>
