<?xml version="1.0" encoding="UTF-8"?>
<!DOCTYPE svg PUBLIC "-//W3C//DTD SVG 1.1//EN" "http://www.w3.org/Graphics/SVG/1.1/DTD/svg11.dtd">
<!-- Creator: CorelDRAW X8 -->
<svg xmlns="http://www.w3.org/2000/svg" xml:space="preserve" width="100mm" height="12.528mm" version="1.1" style="shape-rendering:geometricPrecision; text-rendering:geometricPrecision; image-rendering:optimizeQuality; fill-rule:evenodd; clip-rule:evenodd"
viewBox="0 0 10000 1253"
 xmlns:xlink="http://www.w3.org/1999/xlink">
 <defs>
  <style type="text/css">
   <![CDATA[
    .fil0 {fill:#EBE6D6}
   ]]>
  </style>
 </defs>
 <g id="Слой_x0020_1">
  <metadata id="CorelCorpID_0Corel-Layer"/>
  <path class="fil0" d="M2688 702c6,4 3,4 0,9 -3,5 -2,3 -4,9l-154 395c-9,24 -17,44 -26,68 -10,23 -18,50 -29,70l501 0c2,-21 95,-247 102,-264 88,-219 170,-442 257,-661 15,-37 42,-96 52,-135l8 12c36,58 90,131 120,188l309 0c-5,16 -31,40 -42,54 -61,68 -116,145 -178,215l-466 563c-6,8 -17,20 -23,28l576 0c12,-23 75,-94 95,-117l123 -149c9,-11 16,-19 25,-29 9,-11 15,-20 24,-30 136,-171 281,-332 415,-503 32,-40 27,-32 76,-32 37,0 73,0 109,0 -9,37 -28,72 -41,107 -13,36 -28,71 -42,108 -29,74 -57,141 -83,215l-84 215c-18,42 -65,178 -85,215l501 0c2,-20 294,-760 309,-798l91 -234c4,-11 8,-24 17,-31 3,12 23,38 30,50 10,18 23,35 34,52 11,16 20,31 32,48 7,10 10,16 15,26 6,10 12,16 17,27l309 0c-16,30 -65,79 -87,107 -15,19 -29,35 -45,53 -57,74 -120,143 -177,216l-133 161c-60,71 -164,194 -222,269l-45 54 576 0c19,-35 57,-70 81,-101l42 -51c44,-49 83,-103 127,-153l63 -76c7,-8 16,-21 23,-26 25,18 194,186 227,211 12,10 21,22 33,30 -2,12 -10,31 -15,43 -17,39 -31,85 -48,123l501 0c2,-25 111,-292 119,-313l122 -312c42,-105 79,-208 121,-312 18,-46 111,-271 121,-316l-3987 0c-2,0 -4,0 -4,0 -17,3 -36,23 -47,35 -15,14 -30,24 -45,37 -34,33 -74,63 -110,94l-66 55c-15,14 -28,25 -44,38 -73,61 -144,127 -220,186l-133 114c8,-31 41,-104 53,-140 9,-23 17,-43 27,-67 18,-46 129,-320 137,-352l-498 0c-21,45 -101,262 -121,312 -43,105 -81,210 -123,315l-213 545c-5,14 -10,24 -14,40 -6,14 -14,28 -17,41l481 0c31,-1 39,-17 63,-38l87 -73c107,-87 209,-181 317,-268l203 -172zm3512 -18l-284 0c3,-10 28,-38 36,-48l136 -163c7,-8 13,-15 20,-24 7,-9 12,-16 19,-24l20 -25c12,-12 45,-7 78,-7 29,0 57,0 87,0l-27 71c-15,40 -79,197 -85,220zm-6200 569l1395 0 153 -393 -897 0 158 -408c7,-19 16,-43 24,-59l396 0c-4,17 -14,40 -21,57 -7,19 -15,40 -23,59l-44 118 498 0 244 -627 -1737 0c4,20 36,77 47,98l119 244c7,19 14,34 23,51l237 0c-3,3 1,0 -6,4 -2,3 -2,2 -6,4l-267 157c-41,23 -30,16 -42,48 -17,43 -33,88 -51,130l-200 517zm6620 0l498 0 93 -239c10,-24 7,-29 30,-38l278 -125c48,-24 135,-58 185,-82l-186 484 498 0 181 -468c11,-28 20,-51 31,-78 11,-28 21,-55 31,-81l213 -546c5,-14 10,-25 15,-38 5,-14 10,-30 17,-42l-502 0c-1,13 -44,118 -52,138l-162 418 -399 0c5,-10 10,-24 13,-35l204 -521 -498 0c-11,21 -22,53 -31,78 -9,24 -20,52 -30,78 -114,282 -222,577 -335,859l-61 157c-10,26 -25,54 -31,81zm3380 -1253l-1395 0c-4,18 -12,32 -19,50 -5,18 -12,32 -18,48 -12,29 -111,276 -112,295l663 0 -295 175c-7,4 -12,7 -15,11l-78 200c-6,14 -10,25 -15,39 -7,15 -13,27 -17,42l-175 0c-2,22 -148,369 -150,393l864 0c7,-28 112,-288 131,-343 6,-14 17,-33 19,-50l-191 0 46 -117c19,-47 123,-323 138,-350l467 0 152 -393z"/>
 </g>
</svg>
