<?xml version="1.0" encoding="UTF-8"?>
<!DOCTYPE svg PUBLIC "-//W3C//DTD SVG 1.1//EN" "http://www.w3.org/Graphics/SVG/1.1/DTD/svg11.dtd">
<!-- Creator: CorelDRAW X8 -->
<svg xmlns="http://www.w3.org/2000/svg" xml:space="preserve" width="100mm" height="12.528mm" version="1.1" style="shape-rendering:geometricPrecision; text-rendering:geometricPrecision; image-rendering:optimizeQuality; fill-rule:evenodd; clip-rule:evenodd"
viewBox="0 0 10000 1253"
 xmlns:xlink="http://www.w3.org/1999/xlink">
 <defs>
  <style type="text/css">
   <![CDATA[
    .fil0 {fill:#D20A11}
   ]]>
  </style>
 </defs>
 <g id="Слой_x0020_1">
  <metadata id="CorelCorpID_0Corel-Layer"/>
  <path class="fil0" d="M2688 701c6,4 3,4 0,10 -3,4 -2,3 -4,9l-154 395c-9,23 -17,44 -26,68 -10,23 -18,50 -29,70l501 0c2,-21 95,-247 102,-264 88,-219 170,-442 257,-661 15,-37 42,-96 52,-135l8 12c36,58 90,131 120,188l308 0c-4,16 -30,40 -41,54 -62,68 -116,145 -178,215l-466 563c-6,8 -17,20 -22,28l575 0c12,-23 76,-94 96,-117l122 -149c9,-11 16,-19 25,-30 9,-10 16,-19 24,-29 136,-171 281,-332 415,-503 32,-40 27,-32 77,-32 36,0 72,0 108,0 -9,37 -28,72 -41,107 -13,35 -28,71 -42,108 -28,74 -57,141 -83,215l-84 214c-18,43 -65,178 -85,216l501 0c2,-20 294,-760 309,-798l91 -234c4,-11 8,-24 16,-31 4,11 24,38 31,50 10,18 23,35 34,51 11,17 20,32 32,49 6,10 10,16 15,26 6,9 12,16 18,27l308 0c-16,30 -65,79 -87,107 -15,19 -30,35 -44,53 -58,74 -121,142 -177,216l-134 161c-60,71 -164,194 -222,269l-44 54 576 0c18,-36 56,-70 81,-102l41 -50c45,-49 83,-103 128,-154l62 -76c7,-7 16,-20 23,-25 25,18 194,185 227,211 12,10 21,22 33,30 -2,12 -10,30 -15,43 -17,39 -31,85 -49,123l502 0c1,-25 111,-292 119,-313l122 -313c42,-104 79,-207 121,-311 18,-46 112,-272 121,-316l-3987 0c-2,0 -5,0 -5,0 -16,3 -35,24 -46,35 -15,13 -30,23 -45,37 -34,33 -74,62 -109,94l-67 55c-15,14 -28,25 -44,38 -73,61 -144,127 -219,186l-134 114c7,-31 41,-104 54,-140 8,-23 17,-44 26,-67 18,-46 129,-320 137,-352l-498 0c-21,45 -101,262 -122,312 -42,105 -80,210 -122,315l-213 545c-5,14 -10,24 -15,39 -5,15 -13,29 -16,42l481 0c31,-1 39,-17 63,-38l87 -73c107,-87 209,-181 317,-268l203 -173zm3512 -17l-284 0c3,-10 28,-38 37,-48l135 -163c7,-8 13,-15 20,-24 7,-9 12,-16 19,-24l20 -25c12,-12 46,-7 78,-7 29,0 58,0 87,0l-27 71c-15,40 -79,197 -85,220zm-6200 569l1395 0 152 -393 -897 0 159 -409c7,-18 16,-42 24,-58l396 0c-4,17 -14,40 -20,57 -8,18 -16,40 -24,59l-44 118 498 0 244 -627 -1737 0c4,20 36,77 47,98l119 244c7,19 14,34 23,51l237 0c-3,3 1,0 -6,4 -3,3 -2,2 -6,4l-267 157c-41,23 -30,16 -42,48 -18,43 -34,88 -51,130l-200 517zm6620 0l498 0 93 -239c9,-24 6,-29 30,-38l278 -125c48,-24 135,-58 185,-82l-186 484 498 0 181 -469c11,-27 20,-50 30,-77 12,-28 22,-55 32,-81l213 -546c5,-14 10,-25 15,-39 5,-13 10,-29 17,-41l-502 0c-1,13 -43,118 -52,138l-161 418 -400 0c5,-11 10,-24 13,-35l204 -521 -498 0c-11,21 -22,53 -31,77 -9,25 -20,53 -30,79 -114,282 -222,577 -336,859l-61 157c-9,25 -23,54 -30,81zm3380 -1253l-1395 0c-4,18 -12,31 -19,50 -5,18 -12,32 -18,48 -12,29 -111,276 -112,295l664 0 -296 175c-7,4 -12,6 -15,11l-79 200c-5,13 -9,25 -14,39 -6,15 -13,27 -16,42l-176 0c-2,22 -147,369 -150,393l864 0c7,-29 112,-288 132,-343 6,-14 16,-33 17,-50l-190 0 46 -117c19,-47 123,-323 138,-350l467 0 152 -393z"/>
 </g>
</svg>
