<?xml version="1.0" encoding="UTF-8"?>
<!DOCTYPE svg PUBLIC "-//W3C//DTD SVG 1.1//EN" "http://www.w3.org/Graphics/SVG/1.1/DTD/svg11.dtd">
<!-- Creator: CorelDRAW X8 -->
<svg xmlns="http://www.w3.org/2000/svg" xml:space="preserve" width="120mm" height="59.125mm" version="1.1" style="shape-rendering:geometricPrecision; text-rendering:geometricPrecision; image-rendering:optimizeQuality; fill-rule:evenodd; clip-rule:evenodd"
viewBox="0 0 12000 5913"
 xmlns:xlink="http://www.w3.org/1999/xlink">
 <defs>
  <style type="text/css">
   <![CDATA[
    .fil0 {fill:#163E6C}
   ]]>
  </style>
 </defs>
 <g id="Слой_x0020_1">
  <metadata id="CorelCorpID_0Corel-Layer"/>
  <path class="fil0" d="M12000 0l-12000 0c3,33 27,79 40,110l524 1324c15,39 29,74 44,111 14,37 28,73 42,111 9,21 41,91 43,113l4309 0c-3,22 -69,192 -86,229 -11,23 -20,52 -32,74l-3025 0c9,17 14,35 21,54l64 165c44,109 80,223 128,330 15,35 29,76 43,112l384 996c13,36 33,74 42,112l1651 0c-1,36 -66,182 -83,226 -11,26 -23,51 -29,77l-1416 0 44 110c8,24 13,31 21,53 8,23 14,37 23,58l373 937c8,23 15,38 23,57l131 332c8,22 14,31 22,53 18,45 55,126 65,169l6338 0 647 -1660c13,-37 37,-74 41,-114l-4059 0c1,-19 19,-57 26,-75l172 -441c8,-24 21,-53 30,-76 75,-199 158,-396 231,-595l85 -218c45,-124 101,-247 145,-372 17,-48 208,-547 232,-593l1805 0c-1,25 -13,47 -21,69l-77 199c-37,91 -70,176 -105,268 -25,63 -194,481 -206,534l2248 0c2,-14 10,-29 15,-42 7,-15 11,-30 18,-46l35 -88c12,-32 21,-58 34,-88l725 -1864c12,-31 24,-58 34,-88 60,-163 132,-319 190,-482 13,-36 48,-107 51,-141z"/>
 </g>
</svg>
