<?xml version="1.0" encoding="UTF-8"?>
<!DOCTYPE svg PUBLIC "-//W3C//DTD SVG 1.1//EN" "http://www.w3.org/Graphics/SVG/1.1/DTD/svg11.dtd">
<!-- Creator: CorelDRAW X8 -->
<svg xmlns="http://www.w3.org/2000/svg" xml:space="preserve" width="100mm" height="100mm" version="1.1" style="shape-rendering:geometricPrecision; text-rendering:geometricPrecision; image-rendering:optimizeQuality; fill-rule:evenodd; clip-rule:evenodd"
viewBox="0 0 10000 10000"
 xmlns:xlink="http://www.w3.org/1999/xlink">
 <defs>
  <style type="text/css">
   <![CDATA[
    .fil0 {fill:#EBE6D6}
    .fil1 {fill:white}
   ]]>
  </style>
 </defs>
 <g id="Слой_x0020_1">
  <metadata id="CorelCorpID_0Corel-Layer"/>
  <g id="_1607229580176">
   <path class="fil0" d="M10000 5001c0,-2762 -2239,-5001 -5000,-5001 -2761,0 -5000,2239 -5000,5001 0,2760 2239,4999 5000,4999 2761,0 5000,-2239 5000,-4999zm-7739 -55c1457,-633 2427,-1053 2914,-1257 1386,-579 1677,-678 1864,-683 43,0 135,9 197,58 50,42 61,96 70,138 8,41 17,128 8,195 -74,791 -399,2710 -566,3593 -70,374 -207,500 -341,512 -291,26 -512,-191 -791,-375 -441,-287 -686,-466 -1115,-749 -496,-325 -175,-504 108,-795 75,-74 1353,-1241 1378,-1344 4,-13 4,-63 -25,-88 -29,-25 -71,-17 -105,-8 -46,8 -744,474 -2106,1394 -199,137 -378,204 -541,200 -179,-4 -520,-100 -778,-184 -312,-99 -562,-153 -542,-328 13,-92 138,-183 371,-279z"/>
   <path class="fil1" d="M2261 4946c1457,-633 2427,-1053 2914,-1257 1386,-579 1677,-679 1865,-683 41,0 134,9 196,58 50,42 62,96 70,138 9,41 17,129 9,195 -75,791 -400,2710 -567,3593 -70,375 -208,500 -341,512 -291,25 -512,-192 -791,-375 -441,-287 -686,-466 -1115,-749 -496,-325 -175,-504 108,-795 75,-75 1353,-1241 1378,-1344 4,-13 4,-63 -25,-88 -29,-25 -71,-17 -105,-8 -46,8 -744,474 -2106,1394 -200,138 -379,204 -541,200 -179,-4 -520,-100 -778,-184 -312,-99 -562,-153 -542,-328 13,-92 138,-183 371,-279z"/>
  </g>
 </g>
</svg>
