<?xml version="1.0" encoding="UTF-8"?>
<!DOCTYPE svg PUBLIC "-//W3C//DTD SVG 1.1//EN" "http://www.w3.org/Graphics/SVG/1.1/DTD/svg11.dtd">
<!-- Creator: CorelDRAW X8 -->
<svg xmlns="http://www.w3.org/2000/svg" xml:space="preserve" width="100mm" height="100mm" version="1.1" style="shape-rendering:geometricPrecision; text-rendering:geometricPrecision; image-rendering:optimizeQuality; fill-rule:evenodd; clip-rule:evenodd"
viewBox="0 0 10000 10000"
 xmlns:xlink="http://www.w3.org/1999/xlink">
 <defs>
  <style type="text/css">
   <![CDATA[
    .fil0 {fill:#163E6C}
    .fil1 {fill:white}
   ]]>
  </style>
 </defs>
 <g id="Слой_x0020_1">
  <metadata id="CorelCorpID_0Corel-Layer"/>
  <g id="_1607760229456">
   <path class="fil0" d="M10000 5000c0,-2762 -2239,-5000 -5000,-5000 -2761,0 -5000,2238 -5000,5000 0,2761 2239,5000 5000,5000 2761,0 5000,-2239 5000,-5000zm-7739 -54c1457,-633 2427,-1053 2914,-1257 1386,-579 1678,-679 1865,-683 42,0 133,8 196,58 49,42 62,96 70,137 8,42 17,129 8,196 -74,791 -399,2710 -566,3593 -70,374 -207,500 -341,512 -291,25 -512,-191 -791,-375 -441,-287 -687,-466 -1116,-749 -495,-325 -174,-504 109,-795 75,-75 1353,-1241 1377,-1345 5,-12 5,-62 -24,-87 -30,-25 -71,-17 -105,-8 -45,8 -744,474 -2106,1394 -199,137 -378,204 -541,200 -180,-4 -521,-100 -779,-183 -312,-100 -562,-155 -541,-329 13,-92 138,-183 371,-279z"/>
   <path class="fil1" d="M2261 4946c1457,-633 2427,-1053 2914,-1257 1386,-579 1678,-679 1865,-683 41,0 133,8 196,58 49,42 62,96 70,137 9,42 17,130 9,196 -75,791 -400,2710 -567,3593 -70,375 -208,500 -341,512 -291,25 -512,-192 -791,-375 -441,-287 -687,-466 -1116,-749 -495,-325 -174,-504 109,-795 75,-75 1353,-1241 1377,-1345 5,-12 5,-62 -24,-87 -30,-26 -71,-17 -105,-8 -45,8 -744,474 -2106,1394 -200,137 -379,204 -541,200 -179,-5 -521,-100 -779,-183 -312,-100 -562,-155 -541,-329 13,-92 138,-183 371,-279z"/>
  </g>
 </g>
</svg>
